<svg width="1120" height="760" viewBox="0 0 1120 760" xmlns="http://www.w3.org/2000/svg" xmlns:xlink="http://www.w3.org/1999/xlink"><title>4A72D5B7-F95D-4DB5-AD4B-28C7A1102BF6</title><defs><linearGradient x1="100%" y1="0%" x2="1.698%" y2="100%" id="b"><stop stop-color="#F6F9FC" offset="0%"/><stop stop-color="#E3ECF4" offset="100%"/></linearGradient><rect id="a" width="584" height="406" rx="4"/><linearGradient x1="116.007%" y1="50%" x2="0%" y2="50%" id="d"><stop stop-color="#10F4D7" offset="0%"/><stop stop-color="#004355" offset="100%"/></linearGradient><linearGradient x1="50%" y1="0%" x2="50%" y2="100%" id="e"><stop stop-color="#10F4D7" offset="0%"/><stop stop-color="#004355" offset="100%"/></linearGradient><linearGradient x1="100%" y1="50%" x2="0%" y2="50%" id="f"><stop stop-color="#10F4D7" offset="0%"/><stop stop-color="#004355" offset="100%"/></linearGradient><linearGradient x1="101.554%" y1="0%" x2="0%" y2="71.759%" id="g"><stop stop-color="#10F4D7" offset="0%"/><stop stop-color="#004355" offset="100%"/></linearGradient><path d="M19.06 1.543c4.384.622 7.691.252 9.922-1.11 2.915 1.427 3.976 4.09 3.184 7.988-4.068 5.725-11.759 11.98-20.156 19.69-3.557 1.94-12.748 2.923-10.747-.949 4.615-4.792 16.172-13.059 17.796-25.62z" id="h"/><path d="M19.06 1.543c4.384.622 7.691.252 9.922-1.11 2.915 1.427 3.976 4.09 3.184 7.988-4.068 5.725-11.759 11.98-20.156 19.69-3.557 1.94-12.748 2.923-10.747-.949 4.615-4.792 16.172-13.059 17.796-25.62z" id="j"/><path d="M3.57.6c4.193-.905 7.188.863 8.987 5.304-.485 4.774-.485 8.19 0 10.248 3.071 2.203 6.987 7.975 11.748 17.318 1.388 3.08 1.945 5.045 1.67 5.896-.667 2.063-4.068 2.393-7.066 0-2.748-2.193-6.564-6.508-11.448-12.947-8.04-7.118-9.635-11.194-3.89-25.818z" id="l"/><path d="M3.57.6c4.193-.905 7.188.863 8.987 5.304-.485 4.774-.485 8.19 0 10.248 3.071 2.203 6.987 7.975 11.748 17.318 1.388 3.08 1.945 5.045 1.67 5.896-.667 2.063-4.068 2.393-7.066 0-2.748-2.193-6.564-6.508-11.448-12.947-8.04-7.118-9.635-11.194-3.89-25.818z" id="n"/><path d="M8 0c4.07 1.15 6.487 2.439 7.252 3.868.441.823-.167 2.912-1.824 6.268C25.798 16.12 33.754 22.08 35 28 20.844 25.597 11.132 21.36.867 14 1.014 7.9 5.13 4.288 8 0z" id="p"/><path d="M2.113.932c5.445-.547 8.55-.105 9.315 1.324.441.823.441 4.45 0 10.88 12.37 5.985 22.181 11.897 23.427 17.816C20.699 28.55 10.499 26.047.234 18.688c.147-6.1 1.88-12.789 1.88-17.756z" id="r"/><path d="M2 0h11.174l2.104 6.39L26 13.09c.527 3.579-.008 5.883-1.603 6.911-3.794 1.241-5.548-.018-9.12-1.03-2.38-.673-5.103-2.113-8.168-4.32C2.602 13.029.35 11.01.35 8.599.349 6.186.899 3.32 2 0z" id="t"/><path d="M2 0h11.174l2.104 6.39L26.962 9.91c7.473 2.729 10.65 5.343 9.53 7.842-.986 2.147-17.643-.616-21.214-1.627-2.38-.674-5.104-1.165-8.169-1.473C2.602 13.028.35 11.01.35 8.598.349 6.186.899 3.32 2 0z" id="v"/><path d="M32.573 88c1.219-1.357 1.828-2.861 1.828-4.512 0-2.478 2.63-4.059 6.228-4.059 1.143 2.27 5.282 9.623 9.905 16.882-2.657 9.514 8.761 12.796 14.493 16.753C67.977 89.369 53.34 74.22 54.286 74.01 67.363 64.695 79.833 24.003 83.596.043c15.011 0 5.137.854 7.044 2.173C88.238 21.481 82.484 60.91 73.38 120.5c10.865 8.6 18.205 14.359 22.02 17.28 4.02 2.527 9.93.159 12.256 2.057 1.351 1.102.196 7.482 0 10.57-3.4-.178-20.876-1.151-25.877 0 6.954 25.79 7.898 40.07 19.554 57.515 2.057 3.079 2.4 6.033 1.751 8.932-.671 3.004-4.82 7.287-12.444 12.85-11.104-19.194-18.104-47.097-21-83.708-4.507-2.867-10.875-6.538-19.106-11.013-2.183 38.944-.41 75.088 3.077 110.017L16.24 231.905c-7.256-5.21-11.197-9.163-11.822-11.862-8.663-37.416-1.813-67.934 3.005-90.465 5.34-24.97 13.723-38.83 25.151-41.578z" id="x"/></defs><g fill="none" fill-rule="evenodd"><path d="M6.663 668.113c1.57-1.932 2.749-4.32 7.016-3.113h416.773c7.52 0 7.52 3.718 7.188 5.372-2.957 14.76-26.397 18.9-57.387 19.128-26.381 10.027-49.224 16.088-68.529 18.183-21.02 2.282-48.564-3.289-73.893-3.134-37.585.23-72.022 5.09-100.93 4.232-40.57-1.204-73.608-5.625-101.957-19.281-21.41-5.886-30.837-13.015-28.281-21.387zM587.787 665h517.22c13.678 3.79 13.235 11.264 11.054 19.19-13.862 3.345-23.373 5.115-28.532 5.31-43.069 1.627-25.179 9.736-49.784 15.841-57.622 1.433-140.625 13.354-159.382 14.632-51.027 3.476-98.948-11.695-116.844-12.106-53.147-1.218-44.341-5.268-84.946-3.944-51.9 1.693-30.198-22.276-70.548-14.423-10.232.656-16.31-2.6-18.235-9.767L587.787 665z" fill="#F6FAFD"/><path fill="#EEF5FB" d="M258 625h74l-6.347 66H265.18z"/><path d="M258 171c14.039 31.887 21.656 51.393 22.85 58.519.816 4.861-.23 13.932.761 27.515.308 4.217 1.039 11.622 2.194 22.215-1.404.664-2.346.664-2.825 0-.022-3.77-1.2-7.75-1.363-9.07-.735-5.97-2.204-8.903-3.547-13.401-8.241-3.602-14.265-32.194-18.07-85.778zM365.73 168c-27.17 22.413-44.316 38.087-51.441 47.023-2.61 3.273-22.105 27.973-23.095 41.556-.308 4.217-1.04 11.622-2.194 22.215 1.404.664 2.345.664 2.824 0 .023-3.77 1.201-7.75 1.364-9.07.735-5.97 2.204-8.903 3.546-13.401 33.47-15.609 56.47-45.05 68.996-88.323z" fill="#AED9D4"/><path d="M343.646 433.322a200.393 200.393 0 0 0-23.357 24.701c-2.61 3.273-21.5 26.9-23.095 41.556-3.8 3.9-2.073 45.911 5.182 126.033 1.404.665 2.345.665 2.824 0 .023-3.77-3.282-81.082-2.824-81.552 6.121-10.277 7.712-26.839 9.055-31.337.895-2.998 11.633-29.465 32.215-79.4z" fill="#00AC96"/><path d="M264 399c14.039 31.887 21.656 51.393 22.85 58.519.763 13.559-.99 37.512 0 51.095.308 4.217 2.106 43.154 5.394 116.809-1.404.664-2.345.664-2.824 0-.023-3.77-7.187-123.203-7.35-124.523-.735-5.969 1.343-11.624 0-16.122-8.241-3.602-14.265-32.194-18.07-85.778zM210 443c22.958 19.504 35.335 29.284 37.132 29.342 4.858 7.57 17.07 34.116 17.79 47.102.307 4.217 2.321 39.494 6.043 105.833-1.404.664-2.345.664-2.824 0-.023-3.771-5.719-95.739-6.185-95.902-3.786-1.33-23.357-28.558-21.473-37.964-7.4-3.233-15.28-17.82-26.822-34.214-.796-1.777-2.016-6.51-3.661-14.197zM217.942 505.688c8.563 24.34 13.744 36.538 15.54 36.595 4.859 7.57 18.322 35.074 26.344 48.058 2.554 5.393 6.858 16.949 12.912 34.669-1.715.664-2.811.664-3.29 0-.023-3.77-14.491-36.403-14.958-36.566-3.785-1.33-15.626-14.022-22.563-23.908-7.511-6.59-6.24-4.257-10.098-15.928-.796-1.777-2.091-16.084-3.887-42.92z" fill="#AED9D4"/><g transform="translate(393 147)"><mask id="c" fill="#fff"><use xlink:href="#a"/></mask><use fill="url(#b)" xlink:href="#a"/><rect fill="#FFF" mask="url(#c)" x="43" y="22" width="520" height="180" rx="4"/><path fill="#E4EBF0" mask="url(#c)" d="M80 126h2v44h-2z"/><path fill="#DAE3ED" mask="url(#c)" d="M173 172h19v6h-19zM221 172h19v6h-19zM271 172h19v6h-19zM323 172h19v6h-19zM372 172h19v6h-19zM441 132h35v5h-35zM441 142h35v5h-35zM441 152h35v5h-35zM490 132h2v34h-2z"/><path fill="#E4EBF0" mask="url(#c)" d="M180 126h2v44h-2zM280 126h2v44h-2zM380 126h2v44h-2z"/><path fill="#E4EBF0" mask="url(#c)" transform="matrix(-1 0 0 1 262 0)" d="M129 75h4v95h-4z"/><path fill="#E4EBF0" mask="url(#c)" transform="matrix(-1 0 0 1 460 0)" d="M228 75h4v95h-4z"/><path fill="#E4EBF0" mask="url(#c)" transform="matrix(-1 0 0 1 668 0)" d="M332 75h4v95h-4z"/><circle fill="#DBE4EE" mask="url(#c)" cx="22" cy="44" r="5"/><circle fill="#DBE4EE" mask="url(#c)" cx="22" cy="88" r="5"/><circle fill="#DBE4EE" mask="url(#c)" cx="22" cy="129" r="5"/><path d="M38.188 225.692L-65.035 366.62c14.022 85.873 31.226 131.586 51.611 137.14 30.579 8.33 184.713 0 199.295 0 14.582 0 56.362-83.568 56.362-93.29 0-6.483 8.035-57.47 24.106-152.962L38.188 225.692z" fill="#DFE4F1" mask="url(#c)"/></g><g transform="rotate(8 -1787.645 1051.508)"><path fill="#FFF" d="M0 0h516v178H0z"/><text font-family="PingFangSC-Semibold, PingFang SC" font-size="12" font-weight="500" fill="#046D74"><tspan x="116" y="32">65%</tspan></text><text font-family="PingFangSC-Semibold, PingFang SC" font-size="12" font-weight="500" fill="#046D74"><tspan x="116" y="68">22%</tspan></text><text font-family="PingFangSC-Semibold, PingFang SC" font-size="12" font-weight="500" fill="#046D74"><tspan x="116" y="104">36%</tspan></text><text font-family="PingFangSC-Semibold, PingFang SC" font-size="12" font-weight="500" fill="#046D74"><tspan x="116" y="140">84%</tspan></text><path fill="#DEE8EF" d="M163 22h4v128h-4zM331 22h4v128h-4z"/><rect fill="#DEE8EF" x="365" y="54" width="4" height="96" rx="2"/><rect fill="#DEE8EF" x="397" y="54" width="4" height="96" rx="2"/><rect fill="#DEE8EF" x="428" y="54" width="4" height="96" rx="2"/><rect fill="#DEE8EF" x="459" y="54" width="4" height="96" rx="2"/><rect fill="#DEE8EF" x="490" y="54" width="4" height="96" rx="2"/><path fill="#DEE8EF" d="M187 24h38v5h-38zM26 22h32v9H26z"/><rect fill="#DEE8EF" x="23" y="39" width="118" height="4" rx="2"/><rect fill="#DEE8EF" x="23" y="73" width="118" height="4" rx="2"/><rect fill="#DEE8EF" x="23" y="108" width="118" height="4" rx="2"/><rect fill="#DEE8EF" x="23" y="144" width="118" height="4" rx="2"/><rect fill="url(#d)" x="23" y="37" width="79" height="8" rx="4"/><rect fill="url(#e)" x="363" y="63" width="8" height="34" rx="4"/><rect fill="url(#e)" x="395" y="91" width="8" height="40" rx="4"/><rect fill="url(#e)" x="426" y="63" width="8" height="72" rx="4"/><rect fill="url(#e)" x="457" y="77" width="8" height="30" rx="4"/><rect fill="url(#e)" x="488" y="86" width="8" height="21" rx="4"/><rect fill="url(#d)" x="23" y="71" width="26" height="8" rx="4"/><rect fill="url(#d)" x="23" y="106" width="50" height="8" rx="4"/><rect fill="url(#f)" x="23" y="142" width="96" height="8" rx="4"/><path fill="#DEE8EF" d="M26 58h32v9H26zM26 93h32v9H26zM26 129h32v9H26zM366 27h38v5h-38zM187 33h34v5h-34zM187 44h13v5h-13zM242 71h6v6h-6zM242 89h6v6h-6zM242 107h6v6h-6zM242 126h6v6h-6zM242 143h6v6h-6zM188 89h6v6h-6zM188 107h6v6h-6zM188 126h6v6h-6zM188 143h6v6h-6zM206 89h6v6h-6z"/><path d="M206 107h6v6h-6v-6zm72-36h6v6h-6v-6zm0 18h6v6h-6v-6zm0 18h6v6h-6v-6zm0 19h6v6h-6v-6zm18-55h6v6h-6v-6zm0 18h6v6h-6v-6zm0 18h6v6h-6v-6zm0 19h6v6h-6v-6z" fill="url(#g)"/><path fill="#DEE8EF" d="M206 126h6v6h-6zM206 143h6v6h-6zM224 71h6v6h-6zM224 89h6v6h-6zM224 107h6v6h-6zM224 126h6v6h-6zM224 143h6v6h-6zM260 71h6v6h-6zM260 89h6v6h-6zM260 107h6v6h-6zM260 126h6v6h-6zM260 143h6v6h-6z"/></g><g transform="translate(913 269)"><path d="M66 218h58.768a1607.179 1607.179 0 0 1-3.863 86.732c3.871 42.188 12.42 64.315 13.26 69.342.561 3.351.561 6.66 0 9.926-2.976 1.344-6.16.906-9.397 0-15.566-47.323-24.58-71.862-27.042-73.616-.333 4.286-.333 28.825 0 73.617-2.826.974-5.7 1.535-8.814 0-6.412-32.066-12.14-62.958-17.181-92.674C68.148 266.032 66.237 241.59 66 218z" fill="#273AAF"/><path d="M63.888 201.18l63.031.82c4.098 1.704 4.676 5.225 4.559 11.338-5.601 8.44-17.55 12.962-29.531 17.657-13.455 2.712-25.34 4.595-38.059 2.882-5.408-1.244 9.19-29.566 0-32.697z" fill="#CCD5FF"/><path d="M48.008 28.575C69.546 58.843 101.223 99.857 104 128l-22.115-5.7-7.06-19.006C54.135 62.676 42.528 40.442 40 36.592c-1.71-2.868.96-5.54 8.008-8.017z" fill="#BCC2FC"/><path fill="#FDD9CC" d="M74 107h12v20H74z"/><path d="M58 124.01c6.331.063 11.208-.046 14.632-.326 4.504 2.063 9.888 1.333 16.155-2.189 10.331 3.709 17.394 9.516 21.188 17.42 5.943 16.383 4.941 24.972 4.941 37.768 2.688 5.362 14.084 9.219 14.084 22.54-10.086 24.5-64.213 31.08-71 14.864 1.36-19.29 2.04-33.822 2.04-43.596 0-10.243-.68-25.737-2.04-46.48z" fill="#00AC96"/><path d="M3.16 56.345c1.247-4.94 4.535-5.759 8.083-4.92 4.024 15.122 9.02 31.986 16.494 44.993 9.795 12.984 23.746 17.513 38.702 28.542 3.282 3.377 3.468 32.482 0 47.695-3.167 2.424-5.424 2.424-6.771 0-5.883-10.589-6.587-26.61-10.96-31.62-10.802-12.378-30.6-25.058-35.671-34.46C9.243 97.344 5.95 80.6 3.16 56.346z" fill="#B8C3FE"/><path d="M6.582 50.547c3.038 0 3.567-.852 3.783-5.398.805-4.18.082-5.995-1.59-2.73-.09-.558-1.133-.367-1.23-.873C8.158 37.388 8.554 34.874 5.5 35 2.462 35 .26 38.54.26 43.235c0 2.985.891 5.718 2.32 7.312.819.913 2.896 0 4.002 0zM80 113c6.627 0 11.33-5.149 11.33-11.5s-2.27-11.03-8.897-11.03c-4.127.784-11.913 6.448-12.78 14.327.247 3.137 3.793 6.27 10.347 8.203z" fill="#FDD9CC"/><path d="M89 113.305c1.442 0 6.31-.287 9-5.29 2.002-.26 3.414-.258 6.06 2.985 3.815 17.638-6.279 8.66-4.628 21.451.94 11.797 20.636 14.521 23.846 24.557 4.417 7.737-17.232 6.807-17.089 12.072.01 12.143 26.665 11.135 31.048-6.315 2.795-11.127-7.033-19.014-11.327-29.134-4.195-9.885.173-17.052-5.24-25.616-5.484-5.719-16.043-5.367-21.238-5.968C99.398 101.172 98 100.425 98 100c0-7.732-5.243-13.603-9.832-13.733C83.198 86.267 80 92.268 80 100c0 3.39 11.984 2.407 3.838 5.705-6.345 4.24 2.37 7.6 5.162 7.6z" fill="#2536AC"/><ellipse fill="#FDD9CC" cx="39.5" cy="25" rx="7.5" ry="8"/><g transform="translate(11)" stroke-width="6"><circle stroke="#D7E1EC" cx="17" cy="17" r="14"/><circle cx="17" cy="17" r="14"/></g><ellipse fill="#FDD9CC" transform="rotate(-44 32.709 23.67)" cx="32.709" cy="23.671" rx="5.5" ry="3.962"/><g transform="translate(70 383)"><mask id="i" fill="#fff"><use xlink:href="#h"/></mask><use fill="#506AF2" xlink:href="#h"/><path d="M31.637 5.463c-2.541-.881-4.685-.093-6.431 2.364-2.439 7.238-14.414 20.028-16.849 20.789-2.434.76-.445 7.53 1.264 7.53 1.14 0 10.23-7.394 27.27-22.18l-5.254-8.503z" fill="#0514A1" mask="url(#i)"/></g><g transform="translate(105 383)"><mask id="k" fill="#fff"><use xlink:href="#j"/></mask><use fill="#506AF2" xlink:href="#j"/><path d="M31.637 5.463c-2.541-.881-4.685-.093-6.431 2.364-2.439 7.238-14.414 20.028-16.849 20.789-2.434.76-.445 7.53 1.264 7.53 1.14 0 10.23-7.394 27.27-22.18l-5.254-8.503z" fill="#0514A1" mask="url(#k)"/></g></g><g transform="translate(463 213)"><path d="M332.689 233.592c19.586-18.123 35.435-27.185 47.546-27.185 12.111 0 19.764.454 22.96 1.362 6.599 12.229 11.845 19.407 11.845 31.92 7.12 7.912-30.951 58.25-34.805 85.984-4.412 1.086-7.612-.203-9.602-3.869 0-7.335 1.808-27.4 3.741-38.294 3.076-17.332 6.033-25.63-.756-29.798-4.743 5.198-20.196 23.131-32.89 49.087-3.107 21.806 15.446 73.984 14.089 74.028-3.402 4.878-8.11 6.058-10.89 1.433-4.992-10.525-23.838-48.356-26.695-70.421-2.62-28.119 5.936-58.102 15.457-74.247z" fill="#4C67F2"/><g transform="translate(366 322)"><mask id="m" fill="#fff"><use xlink:href="#l"/></mask><use fill="#2345EF" xlink:href="#l"/><path d="M-4.09 24.994c-2.656 0-3.634-15.938 9.02-12.469 4.11 5.266 4.11 7.623 8.451 12.469C17.724 29.84 26.4 42.175 23.787 47.583 21.174 52.99-1.433 24.994-4.09 24.994z" fill="#1A299D" mask="url(#m)"/></g><g transform="matrix(-1 0 0 1 359 373)"><mask id="o" fill="#fff"><use xlink:href="#n"/></mask><use fill="#2345EF" xlink:href="#n"/><path d="M-4.09 24.994c-2.656 0-3.634-15.938 9.02-12.469 4.11 5.266 4.11 7.623 8.451 12.469C17.724 29.84 26.4 42.175 23.787 47.583 21.174 52.99-1.433 24.994-4.09 24.994z" fill="#1A299D" mask="url(#o)"/></g><path d="M364.952 256.471L329.838 468.19M393.499 257.571l-34.772 208.632M362 275h27.674M358 305h27.674M351 335h27.674M348 363h27.674M344 393h27.674M337 422h27.674M332 452h27.674" stroke="#DFE6EE" stroke-width="3"/><path fill="#B9C0C7" d="M360 245h44v12h-44z"/><path fill="#DFE6EE" d="M404 245h46v12h-46z"/><path d="M415.535 259.73l34.552 207.326M446.359 257.311l33.082 208.253M428.414 323.507h25.15" stroke="#DFE6EE" stroke-width="3"/><path fill="#B8C4FC" d="M276.06 158H298v19h-20z"/><path d="M277 158h21v3c-2.983 1.267-5.367 2.02-7.151 2.257-4.48.595-5.355 6.815-7.475 6.815-2.245 0-2.927-4.28-4.07-6.025-.444-.68-1.213-1.695-2.304-3.047v-3z" fill="#014758"/><path d="M277.415 158.198c.442-7.12 3.239-11.696 8.389-13.728" stroke="#B8C4FC" stroke-width="3"/><path d="M296.122 145.76c2.494 5.958 4.751 10.282 6.771 12.97.508.677 1.116 4.03 1.666 4.639.699-.811 4.024-3.862 4.734-4.638 18.288-20.008 36.982-26.268 39.847-27.98-5.791-6.457-24.77-29.288-26.991-33.975-1.146-6.746-3.014-16.672-5.604-29.776 2.562-1.398 5.18-2.487 8.421 0 .816 9.65 3.436 17.863 7.86 24.64 7.544 7.27 34.513 21.515 47.995 35.101 10.878 25.228 21.399 57.89 31.563 97.986-11.367.377-18.81.377-22.327 0-1.27-.137.913-12.326-3.013-17.078-3.186 7.131-1.252 17.084-2.29 17.078-6.607-.039-15.758-.903-24.322 1.32-9.123 1.622-17.276 5.943-23.957 9.674-1.229.862-4.144.901-4.687-.998-1.54-8.684.678-39.231 1.039-61.597-7.119 8.113-15.635 13.364-25.549 15.753-4-2.014-13.142-22.709-19.121-36.377-.595-5.528 2.06-7.775 7.965-6.742z" fill="#00AC96"/><path d="M360.125 132c5.523 0 6.875-7.387 6.875-16.5S362.523 99 357 99s-11.992 8.867-11.992 17.98c0 4.591 2.277 3.812 4.613 6.43 1.269 1.422-.232 6.664 1.121 8.59 1.1 1.567 8.154 0 9.383 0z" fill="#FDD9CC"/><path d="M362.5 129c6.904 0 13.472-12.64 13.472-23.134S369.404 91 362.5 91s-11.054 2.845-11.408 14.866c0 3.217 5.55 4.058 8.553 4.134.785 2.245-.744 6.248-2.919 8.184-.247 5.285 2.486 7.927 5.774 10.816z" fill="#FE3321"/><ellipse fill="#FDD9CC" cx="316" cy="55.5" rx="5" ry="2.5"/><path d="M.525 70.88c13.815 0 20.198 1.562 26.082-7.81 5.884-9.373 19.674-28.342 35.727-28.342 16.054 0 29.711 28.341 47.617 28.341 17.907 0 33.038-62.547 50.592-62.547 17.553 0 37.044 45.8 48.63 48.59 11.586 2.79 40.291-11.04 57.79-8.454 17.498 2.585 23.7 15.17 35.283 18.79 11.582 3.621 18.166-3.62 22.96-6.036" stroke="url(#d)" stroke-width="4"/><path d="M319.115 65.815c3.314 0 4.607-2.623 3.887-6.815.744-2.639-1.572-2.007-3.887-1.806-.894.368 0 6.55-2.893 1.806-1.795-1.292-2.38.74-1.468 2.398 1.21 2.758 1.326 2.018 1.892 2.778.791 1.064.965 1.483 2.47 1.64zM288.5 146c3.59 0 6.5-1.79 6.5-4s-2.91-4-6.5-4-7.09 3.152-7.09 5.36c0 2.21 5.317-2.115 7.09 2.64z" fill="#FDD9CC"/></g><g><path d="M633.154 399.311c-1.935-.92-.699-3.32-.103-6.251.945-4.643.945-9.42 1.152-10.024.705-2.056 2.55 5.381 4.033 13.077.273 9.996.705 15.935 1.296 17.817 4.653 11.993 10.386 15.548 12.863 15.032 6.819-1.42 15.974-8.081 27.465-19.984 8.876 8.091 9.69 15.348 2.443 21.77-5.117 4.535-13.452 9.44-22.442 12.945-2.081.812-5.995 3.899-11.705 3.542-1.481-.093-3.971-1.273-7.47-3.542-8.645-13.748-9.317-22.423-11.763-37.278.063-1.405-6.497-9.333-5.336-12.996 1.162-3.663 6.905 5.892 9.567 5.892z" fill="#FDD9CC"/><path d="M685.595 403.853c7.843-2.49 15.277-3.734 22.302-3.734 10.537 0 17.13 4.239 22.98 18.195 8.8 20.99 13.44 46.106 13.917 75.348l-55.057-10.547c-1.699-23.577-4.595-41.36-8.689-53.35-1.747-16.524-.232-25.16 4.547-25.912z" fill="#FFF"/><path d="M681.934 404.974c1.091-1.92 3.222-1.09 5.291-1.193-.392 5.044-.392 7.128 0 16.72.65 15.884 3.736 39.01 6.297 51.286 7.58-.659 11.896-.029 13.71 0 1.751.028-11.856-51.286 9.629-68.006 1.54 0 3.18.398 4.918 1.193a120.29 120.29 0 0 1-1.953 2.49c-13.281 6.579-12.617 48.542-6.73 65.533 2.606 13.454 13.731 20.323 25.615 11.029 1.732-2.823 6.651-3.64 6.651-1.584-14.228 79.896-30.524 79.488-38.13 106.06-7.608 26.572 0 35.326-3.279 38.588-3.277 3.262-10.293 1.363-16.728 0-14.673-14.193-2.04-66.588-8.707-66.943-3.88-.207-19.122 18.373-25.283 24.868-.674 14.329 3.153 31.036 4.627 42.075-7.08 2.224-14.333 2.27-17.468 1.274-2.328-4.896-6.088-13.424-11.277-25.586-8.124-13.377-8.846-26.638-2.168-39.783 18.37-36.156 54.864-54.495 61.938-87.11-.55-16.331-4.376-43.124-6.953-53.95-.101-3.47.05-11.689 0-16.961z" fill="#00AC96"/><path d="M686 625.793c6.399-.658 12.361-1.65 18.127-2.793 3.872 23.535 6.32 40.364 7.344 50.487-3.838 5.622-9.331 9.39-16.48 11.306-2.275.212-3.81-.437-4.606-1.946-.595-1.128-.283-2.763 1.032-4.837 1.96-1.823 3.84-3.975 6.664-5.227 2.605-2.184 2.684-4.409 1.919-8.348-1.832-4.056-6.498-16.937-14-38.642zM639.873 628.79c6.4-.658 12.362-1.65 18.127-2.793 12.036 21.067 18.565 36.663 19.588 46.786-3.838 5.622-14.568 8.822-32.19 9.601-2.277.212-3.813-.437-4.608-1.946-.594-1.128.005-4.121 4.607-5.262 4.602-1.141 7.86-1.141 10.684-2.393 2.605-2.184 2.684-4.409 1.919-8.348-1.832-4.056-7.874-15.938-18.127-35.645z" fill="#4A65F0"/><path d="M619.554 492.952c21.214-11.95 36.005-21.149 44.373-27.597 10.241-7.89 23.364-20.198 39.37-36.924 11.032 4.315 12.805 12.499 11.28 21.942l-52.773 30.894c-21.28 11.054-33.287 17.435-36.02 19.142-1.744 1.627-1.958 3.828-6.23 4.777-4.314.96-9.4.96-15.256 0-1.844-1.667-1.501-3.246 0-4.777 5.8.224 8.7-.047 8.7-.813 0-.163 2.745-1.596 0-3.292-.124-.923-3.15.174-2.014-3.352 2.92-.1 5.776-.1 8.57 0zM682.5 395.597c1.331 0 1.563-1.368 4.19 0 1.885.98 1.769 4.908 0 7.514 3.7 9.362 20.216 5.399 20.693 0C707.821 398.157 687.747 375 682.5 375c-2.545 0-7.795.299-9.5 1.843-1.81 1.639 0 8.02 0 10.58 0 4.97 4.253 8.174 9.5 8.174z" fill="#FDD9CC"/><path d="M678.65 373.294l20.41 3.818c1 5.693 3.545 10.78 2.706 17.195-1.57.842-1.57-.327-2.432-.453-4.796-.695-10.54-.923-6.207-6.113-1-3.406-2.6-3.402-4.438-4.094-5.035-1.282-8.381-3.46-10.038-6.535-5.893.843-10.11-.43-12.651-3.818h12.65z" fill="#FDB58D"/><path d="M699.017 381.599c1.797-1.342 1.592-4.726-1.062-8.099s-3.667-4.127-9.548-4.655c-2.235 0-8.033 1.22-13.136 1.943-8.568-1.156-12.995-7.06-18.291-4.468-1.59 1.201 7.177 8.715 21.02 7.18-.098 4.442 18.298 9.807 21.017 8.099z" fill="#2235AB"/><path d="M718.971 408.7c-8.618 4.777-15.895 10.819-18.712 21.065 7.167 2.77 11.902 6.156 14.203 10.16 2.301 4.004 3.804-6.404 4.51-31.225z" fill="#FFF"/></g><g><path d="M489.726 107l56.553 9.827c40.863 12.747 60.501 26.4 60.501 40 0 9.066-13.996 38.53-41.987 88.391-2.154.97-3.752.97-4.793 0-1.041-.97-2.332-3.66-3.872-8.073 4.14-10.432 7.028-17.37 8.665-20.815 13.508-28.424 18.678-42.429 16.556-50.644-1.215-4.703-15.22-9.48-42.016-14.33 6.787 13.786 10.91 26.668 12.369 38.647 4.029 33.09 1.912 80.03 0 88.69-2.569 1.671-9.658 4.253-10.125 0-.935-8.523-2.244-33.475-10.705-78.226-1.316-6.963-10.654-10.824-18.872-20.223-4.72-5.399-12.962-15.769-24.728-31.111L489.726 107z" fill="#4B68F1"/><path d="M551 64h8.436c3.786 5.479.64 11.655 8.564 16.718-5.86.518-10.563 4.648-14.467 11.282-1.517-2.531-2.362-4.742-2.533-6.634-.171-1.893-.171-9.014 0-21.366z" fill="#B7C3FD"/><path d="M507.715 48.787c9.65-6.673 10.356-6.44 17.626-8.672 2.253-.692 4.415-.818 6.074 0 7.572 3.735 9.68 20.538 15.904 22.307 3.199.91 8.63-1.083 16.295-5.98-6.417 17.87-22.793 36.357-20.814 65.628-18.902 16.276-34.06 24.236-45.473 23.88-1.467-.046-.106-21.098-1.673-20.442-1.49.625-3.071 13.511-3.071 21.988-6.437.112-11.55-3.876-15.338-11.966-4.021-15.194-3.146-31.19 2.626-47.985 8.657-25.195 18.194-32.086 27.844-38.758z" fill="#00AC96"/><path d="M520 85.467c6.07-4.563 11.71-5.718 16.922-3.467 3.708 1.602-1.784 37.05 27.31 46.605 16.854 5.535 21.05-1.411 29.445 3.974 4.324 2.349 7.046 6.822 8.166 13.421-6.338-3.572-11.859-5.82-16.561-6.743-15.017-2.95-33.627-3.949-42.69-10.652-13.32-9.852-20.85-24.231-22.592-43.138z" fill="#FDD9CC"/><path d="M515 59.32c3.695-11.35 9.442-16.532 16.064-15.567 4.415.643 7.542 13.221 9.383 37.735-10.234-.31-16.22.654-21.857 3.728-4.597-10.494-5.794-19.126-3.59-25.896z" fill="#B7C3FD"/><g transform="translate(549 240)"><mask id="q" fill="#fff"><use xlink:href="#p"/></mask><use fill="#2234AF" xlink:href="#p"/><path d="M-1.069 4.383l12.39 5.228c10.12 0 15.18-.871 15.18-2.614 0-2.614 3.17-17.605 0-17.605-2.113 0-11.303 2.213-27.57 6.638v8.353z" fill="#BAC5FF" mask="url(#q)"/></g><g transform="translate(540 278)"><mask id="s" fill="#fff"><use xlink:href="#r"/></mask><use fill="#2234AF" xlink:href="#r"/><path d="M-3.069 9.997h16.25c7.546 1.743 11.32 1.743 11.32 0 0-2.614 3.17-17.605 0-17.605-2.113 0-11.303 2.213-27.57 6.638V9.997z" fill="#BAC5FF" mask="url(#s)"/></g><path d="M554 90.487c6.042-6.101 10.586-9.344 13.63-9.728 2.836 3.47 24.404 25.394 64.703 65.772 7.264.258 14.338 4.428 13.585 9.813-1.175.633-2.059.743-2.651.332-2.03-1.408-4.024-4.856-5.821-5.595-3.095.87.193 5.77-3.222 5.263-2.527-.873-2.852-2.605-3.563-5.263-12.175-5.45-27.608-15.852-46.297-31.204L554 90.487z" fill="#FDD9CC"/><path d="M640.2 170.878l-4.233.977-.977-4.232-3.786-2.365a3 3 0 0 1-.954-4.134l4.77-7.633a3 3 0 0 1 4.133-.954l12.7 7.936a3 3 0 0 1 .955 4.134l-4.77 7.632a3 3 0 0 1-4.133.955l-3.706-2.316z" fill="#3655EE"/><path d="M568 56.088c2.798 4.071 6.006 6.083 8.778 5.916 7-.42 12.222-8.07 12.222-14.004 0-8.284-9.402-15-21-15s-21 6.716-21 15c0 6.386-4.537 11.84 3.336 14.004.985.27 7.35-.641 9.664-1.574 1.78-.717 1.233-3.359 2.752-4.342 1.197-.774 4.57 0 5.248 0z" fill="#FDD9CC"/><path d="M493.62 51.655c14.01-5.674 10.815-12.566 19.262-22.756 2.148-2.592 4.116-5.157 10.005-5.157 15.86 0 19.473 7.02 27.163 7.02 12.09 0 9.204-5.775 21.81-7.02 19.13-1.889 21.63 15.45 23.673 17.62.906 2.376-1.073 4.188-2.525 4.845-3.492.965-10.185.001-16.881 0-1.01-2.854-2.777-2.87-4.268-2.335-2.141.769-3.462 1.444-2.997 4.944-2.517 2.165-8.823 1.446-10.146 2.839-3.998 4.21-5.282 11.124-8.666 11.124-10.661 0-14.137-22.956-19.689-22.981-25.79-.03-47.516 37.93-52.063 50.797-6.628 0-10.366-.994-13.122-4.459-1.65-2.796-1.65-7.246 0-13.35 12.013-19.321 15.826-16.021 28.444-21.131z" fill="#FD4919"/></g><g><path fill="#FFF" d="M72 375h37v114H72z"/><g transform="translate(63 674)"><mask id="u" fill="#fff"><use xlink:href="#t"/></mask><use fill="#4E68F1" xlink:href="#t"/><path d="M-2.544-4.338v6.091C7.463 6.465 12.546 5.04 17.742 4.142l3.651-15.887-23.937 7.407z" fill="#FFF" mask="url(#u)"/></g><g transform="translate(116 671)"><mask id="w" fill="#fff"><use xlink:href="#v"/></mask><use fill="#4E68F1" xlink:href="#v"/><path d="M-2.544-4.338v6.091C7.463 6.465 12.546 5.04 17.742 4.142l3.651-15.887-23.937 7.407z" fill="#FFF" mask="url(#w)"/></g><path d="M46 478c21.565 3.772 37.291 5.395 47.178 4.87 9.886-.524 19.854-3.728 29.903-9.611 9.146 32.342 14.13 64.692 14.955 97.05.854 33.515-2.454 67.037-9.922 100.566-4.267.986-8.597.986-12.989 0 .628-67.966-1.807-108.113-8.253-114.593-.946 6.494-2.816 22.381-5.666 36.25C93.776 628.687 81.913 674 79.026 674h-13.37c0-5.34 1.905-9.776 1.905-21.842 0-23.177 12.274-38.943-6.964-119.304C57.767 521.036 51.017 491.095 46 478z" fill="#283BAF"/><g transform="translate(35 292)"><mask id="y" fill="#fff"><use xlink:href="#x"/></mask><use fill="#00AC96" xlink:href="#x"/><path fill="#081B9A" mask="url(#y)" d="M95 133h14v22H95zM81-8h23v25.185l-25.074-7.062z"/></g><path d="M52.714 482.178c6.67 3.327 12.679 6.824 22.571 7.053.75.017 2.443 1.235 2.486 1.816.185 2.503.077 4.538-.917 6.306-.95 1.688-.32.21-2.053 0-7.818-.95-17.882-2.884-23.997-6.656-.751-.464-2.843-1.9-2.803-2.633.062-1.155.764-3.34 1.084-4.67.17-.704 2.394-1.833 3.63-1.216zM77.256 373.301c1.237 4.51-.916 4.46 7.953 8.849.672.332 1.692 2.151 1.486 2.696-.891 2.347-1.848 4.145-3.497 5.328-1.574 1.128-.378.055-1.86-.868-6.685-4.165-5.466-3.088-9.413-9.091-.485-.738-1.428-.738-1.428-3.571 0-2.929 4.846-5.612 6.76-3.343zM94 371h3.425c3.104 1.205 3.481 4.112 4.92 6.469.231 1.468-.132 2.59-1.09 3.367-1.301 1.054-2.645 1.442-4.032 1.164L94 375.997V371zM124.243 485.081c1.933 0 5.7-1.157 5.7-4.195 0-3.037-.307-4.194-2.24-4.194-1.704 1.432-3.53 1.854-5.295 4.194 0 3.038-.098 4.195 1.835 4.195z" fill="#081B9A"/><path d="M92 369.514c7.732 0 12.932.64 12.932-7.092 0-7.732-5.2-20.422-12.932-20.422s-14 6.268-14 14c0 4.564 2.184 8.618 5.564 11.174.54.408-5.803 1.566-7.98 4.949-2.161 3.358-.185 8.938 7.98 10.698 16.39 3.532 9.658-9.034 8.436-13.307z" fill="#FDD9CC"/><path d="M82.5 369c2.958 0 2.958-1.447 2.958-4.445s-2.958-.302-2.958-5.357c0-.929.714-3.076 3.509-3.076.696 0 .118-7.116.696-8.283 1.552-3.135 12.068-1.197 12.068-3.286 0-7.155-6.153-8.684-13.315-8.684s-17.428 8.684-16.057 16.678C70.77 360.542 78.187 369 82.5 369z" fill="#2A3DB3"/><path d="M143 432l35.94 2.907c2.308-2.561 4.184-3.82 5.63-3.776 1.284 3.55-3.534 3.776-2.697 5.864.177.441 3.225.849 9.144 1.223 1.789.728 2.485 1.467 2.089 2.219-.594 1.127-2.089 1.929-3.856 1.929-3.673.5-6.151.802-10.31 0-2.773-.535-14.753-.802-35.94-.802V432zM122.471 258.136c1.698-3.129 2.546-3.525 4.327-4.468 5.113-2.707 10.87.478 11.452 2.797-3.242 1.004-5.238.676-9.448.625.002.51.179 10.952.177 11.488-.01 4.034-.737 12.217-2.18 24.548l-7.09-1.59c.352-9.713 1.272-17.366 2.762-22.958-1.841-4.733-1.841-8.213 0-10.442z" fill="#FDD9CC"/></g></g></svg>