<svg xmlns="http://www.w3.org/2000/svg" xmlns:xlink="http://www.w3.org/1999/xlink" width="272" height="272" viewBox="0 0 272 272"><defs><path id="a" d="M75.5 151c41.697 0 75.5-33.803 75.5-75.5S117.197 0 75.5 0 0 33.803 0 75.5 33.803 151 75.5 151z"/></defs><g fill="none" fill-rule="evenodd"><path fill="#E6F7FF" d="M89.379 70.236C106.842 55.517 116.22 44 136.497 44c26.771 0 38.93 12.998 57.704 45.745 14.72 14.839 39.864 20.335 51.228 53.194 3.215 15.67-8.136 27.588-12.514 46.391-2.715 11.664 3.323 28.445-7.41 37.852-41.055 22.76-118.438 12.99-140.35 14.295-10.49.806-42.939-4.63-51.852-38.392-6.743-24.626 8.527-22.316-4.617-69.514C17.091 80.488 68.346 69.56 89.38 70.236z"/><path fill="#69C0FF" d="M50.657 95c1.208 4.116 3.48 7.452 8.657 8.657-6.061.994-7.554 4.71-8.657 8.657-1.629-3.979-2.95-8.224-8.657-8.657 4.537-1.508 7.222-4.561 8.657-8.657z"/><path fill="#1890FF" d="M151.071 39c.987 3.362 2.843 6.087 7.071 7.071-4.95.812-6.17 3.847-7.07 7.071-1.331-3.25-2.411-6.718-7.072-7.07 3.706-1.232 5.899-3.726 7.071-7.072z"/><path fill="#69C0FF" d="M216.36 69.886c1.75 5.96 5.04 10.79 12.536 12.536-8.777 1.439-10.938 6.819-12.535 12.535-2.359-5.761-4.273-11.909-12.536-12.535 6.57-2.184 10.457-6.605 12.536-12.536z"/><path fill="#1890FF" d="M243.268 147c1.154 3.931 3.323 7.117 8.268 8.268-5.79.95-7.215 4.497-8.268 8.268-1.556-3.8-2.818-7.855-8.268-8.268 4.333-1.44 6.897-4.356 8.268-8.268zm-31 78c1.154 3.931 3.323 7.117 8.268 8.268-5.79.95-7.215 4.497-8.268 8.268-1.556-3.8-2.818-7.855-8.268-8.268 4.333-1.44 6.897-4.356 8.268-8.268z"/><path fill="#69C0FF" d="M50.093 231.886c1.154 3.931 3.324 7.117 8.268 8.268-5.789.95-7.215 4.497-8.268 8.268-1.556-3.8-2.818-7.855-8.268-8.268 4.333-1.44 6.897-4.356 8.268-8.268z"/><path fill="#096DD9" d="M28.459 131.886c1.065 3.63 3.069 6.571 7.634 7.634-5.345.877-6.661 4.153-7.634 7.634-1.436-3.509-2.602-7.253-7.634-7.634 4-1.33 6.368-4.022 7.634-7.634z"/><g transform="translate(58 85)"><path stroke="#1890FF" stroke-width="4" d="M78.5 155c42.25 0 76.5-34.25 76.5-76.5S120.75 2 78.5 2 2 36.25 2 78.5 36.25 155 78.5 155z"/><g transform="translate(3 3)"><mask id="b" fill="#fff"><use xlink:href="#a"/></mask><use fill="#69C0FF" fill-rule="nonzero" opacity=".509" xlink:href="#a"/><path fill="#E6F7FF" d="M148.224 51.183c0 5.413-5.615 80.996-90.644 98.863-56.685 11.912-29.098 19.305 82.763 22.18L191.669 28.11c-28.963 11.773-43.445 19.464-43.445 23.072z" mask="url(#b)" opacity=".582"/></g><path stroke="#1890FF" stroke-dasharray="5" stroke-width="3" d="M55.434 5.145c33.18 5.299 88.037 69.933 89.97 110.852m.973-72.845c6.128 40.683-49.955 106.237-115.852 96.12M134.646 26.975c8.136 29.41 5.633 76.639-32.78 123.484"/><path stroke="#1890FF" stroke-width="3" d="M16.24 123.853C10.094 61.606 91.907 9.776 134.678 26.525M84 155.594c-29.909-22.455-27.255-123.32 32.99-143.12M1.594 70.033c16.023 43.521 139.805.996 115.712-58.12m20.65 114.812c-54.108 0-111.272-80.987-96.207-115.588"/><circle cx="136" cy="83" r="7.5" fill="#FFF" stroke="#1890FF" stroke-width="3"/><circle cx="67" cy="83" r="7.5" fill="#FFF" stroke="#1890FF" stroke-width="3"/><circle cx="93" cy="27" r="7.5" fill="#FFF" stroke="#1890FF" stroke-width="3"/><circle cx="22" cy="90" r="7.5" fill="#FFF" stroke="#1890FF" stroke-width="3"/><circle cx="71" cy="137" r="7.5" fill="#FFF" stroke="#1890FF" stroke-width="3"/><circle cx="47" cy="55" r="7.5" fill="#FFF" stroke="#1890FF" stroke-width="3"/><circle cx="62.5" cy="64.5" r="46.5" fill="#E6F7FF" opacity=".536"/></g></g></svg>