<svg xmlns="http://www.w3.org/2000/svg" xmlns:xlink="http://www.w3.org/1999/xlink" width="272" height="272" viewBox="0 0 272 272"><defs><path id="d" d="M104.601 30.2l3.276-4.682-6.631-6.952-4.174 2.965c-11.194 7.952-26.458.97-28.49-12.888L67.754 3h-9.216l-1.402 7.644c-2.47 13.472-17.425 19.967-28.374 12.192l-6.008-4.27-6.63 6.952 3.274 4.682c7.887 11.273 1.88 27.319-11.346 29.986L3 61.206v9.989l5.306.856c13.32 2.148 19.897 17.955 12.418 29.528l-2.977 4.605 6.623 6.944 4.248-3.266c10.9-8.382 26.408-2 28.936 11.776l.984 5.362h9.216l.47-3.208c2.08-14.167 17.91-21.042 29.051-12.475l2.355 1.81 6.623-6.943-2.977-4.606c-7.476-11.572-.9-27.379 12.418-29.527l5.306-.856v-9.99l-5.052-1.02C102.72 57.52 96.714 41.475 104.6 30.2z"/><path id="a" d="M37.394 67.242c0 19.318 15.66 34.979 34.978 34.979s34.979-15.66 34.979-34.979"/><mask id="f" width="69.956" height="34.978" x="0" y="0" fill="#fff"><use xlink:href="#a"/></mask><path id="g" d="M80.472 23.126l2.523-3.6-5.108-5.343-3.215 2.278c-8.622 6.113-20.378.746-21.943-9.906l-.638-4.338h-7.098l-1.08 5.875c-1.903 10.356-13.421 15.35-21.854 9.372l-4.628-3.281-5.107 5.343 2.523 3.6c6.074 8.665 1.447 21-8.739 23.05l-3.891.783v7.68l4.087.657c10.259 1.652 15.324 13.803 9.564 22.698l-2.293 3.54 5.101 5.338 3.272-2.51c8.395-6.443 20.34-1.538 22.287 9.052l.758 4.122h7.098l.363-2.466c1.601-10.89 13.793-16.175 22.375-9.59l1.814 1.392 5.101-5.338-2.293-3.54c-5.758-8.896-.693-21.046 9.564-22.698l4.087-.658V46.96l-3.891-.784c-10.187-2.05-14.814-14.384-8.74-23.05z"/><path id="b" d="M28.817 52.093c0 14.691 12.158 26.6 27.155 26.6 14.997 0 27.155-11.909 27.155-26.6"/><mask id="i" width="54.31" height="26.601" x="0" y="0" fill="#fff"><use xlink:href="#b"/></mask><path id="j" d="M56.26 16.168l1.765-2.516-3.571-3.736-2.248 1.593c-6.028 4.273-14.247.521-15.341-6.927l-.446-3.032h-4.963l-.754 4.108c-1.331 7.24-9.384 10.73-15.28 6.552l-3.235-2.294-3.57 3.736 1.763 2.516c4.247 6.058 1.012 14.682-6.11 16.115l-2.72.548V38.2l2.857.46c7.173 1.154 10.714 9.65 6.687 15.869L9.49 57.004l3.566 3.732 2.288-1.756c5.87-4.504 14.22-1.075 15.581 6.33l.53 2.88h4.963l.253-1.723c1.12-7.614 9.644-11.309 15.644-6.705l1.268.973 3.566-3.731-1.603-2.476c-4.026-6.219-.484-14.714 6.687-15.868l2.857-.46v-5.37l-2.72-.547c-7.123-1.433-10.357-10.056-6.11-16.115z"/><path id="c" d="M20.147 36.42c0 10.271 8.5 18.598 18.985 18.598S58.117 46.69 58.117 36.42"/><mask id="l" width="37.97" height="18.597" x="0" y="0" fill="#fff"><use xlink:href="#c"/></mask></defs><g fill="none" fill-rule="evenodd"><path fill="#E6F7FF" d="M89.379 70.236C106.842 55.517 116.22 44 136.497 44c26.771 0 38.93 12.998 57.704 45.745 14.72 14.839 39.864 20.335 51.228 53.194 3.215 15.67-8.136 27.588-12.514 46.391-2.715 11.664 3.323 28.445-7.41 37.852-41.055 22.76-118.438 12.99-140.35 14.295-10.49.806-42.939-4.63-51.852-38.392-6.743-24.626 8.527-22.316-4.617-69.514C17.091 80.488 68.346 69.56 89.38 70.236z"/><path fill="#69C0FF" d="M44.657 82c1.208 4.116 3.48 7.452 8.657 8.657-6.061.994-7.554 4.71-8.657 8.657-1.629-3.979-2.95-8.224-8.657-8.657 4.537-1.508 7.222-4.561 8.657-8.657z"/><path fill="#1890FF" d="M151.071 39c.987 3.362 2.843 6.087 7.071 7.071-4.95.812-6.17 3.847-7.07 7.071-1.331-3.25-2.411-6.718-7.072-7.07 3.706-1.232 5.899-3.726 7.071-7.072z"/><path fill="#69C0FF" d="M216.36 69.886c1.75 5.96 5.04 10.79 12.536 12.536-8.777 1.439-10.938 6.819-12.535 12.535-2.359-5.761-4.273-11.909-12.536-12.535 6.57-2.184 10.457-6.605 12.536-12.536z"/><path fill="#1890FF" d="M243.268 147c1.154 3.931 3.323 7.117 8.268 8.268-5.79.95-7.215 4.497-8.268 8.268-1.556-3.8-2.818-7.855-8.268-8.268 4.333-1.44 6.897-4.356 8.268-8.268z"/><path fill="#69C0FF" d="M50.093 231.886c1.154 3.931 3.324 7.117 8.268 8.268-5.789.95-7.215 4.497-8.268 8.268-1.556-3.8-2.818-7.855-8.268-8.268 4.333-1.44 6.897-4.356 8.268-8.268z"/><path fill="#096DD9" d="M28.459 131.886c1.065 3.63 3.069 6.571 7.634 7.634-5.345.877-6.661 4.153-7.634 7.634-1.436-3.509-2.602-7.253-7.634-7.634 4-1.33 6.368-4.022 7.634-7.634z"/><g transform="translate(118 122)"><path fill="#FFF" fill-rule="nonzero" stroke="#1890FF" stroke-width="3" d="M124.238 75.23l-7.828 1.263c-10.052 1.622-15.099 13.751-9.354 22.643l4.903 7.586-11.865 12.44-1.07-.823-4.492-3.455c-8.367-6.433-20.266-1.266-21.855 9.561l-1.035 7.055H54.79l-.226-1.229-1.435-7.82c-1.93-10.522-13.581-15.316-21.767-9.022l-7.455 5.732-11.865-12.44.642-.993 4.261-6.592c5.747-8.892.7-21.02-9.354-22.643l-9.09-1.466V57.522l1.203-.242 7.46-1.505c9.992-2.016 14.605-14.337 8.548-22.995l-5.387-7.702 11.861-12.435 1.059.752 8.124 5.772c8.217 5.836 19.455.955 21.342-9.335L54.79-1.5h16.853l.188 1.282 1.205 8.208c1.552 10.592 13.029 15.84 21.431 9.872l7.349-5.219 11.861 12.435-.704 1.007-4.683 6.695c-6.058 8.659-1.446 20.98 8.548 22.995l8.663 1.747v17.505l-1.26.204zm-69.675 55.041z"/><mask id="e" fill="#fff"><use xlink:href="#d"/></mask><use fill="#E6F7FF" xlink:href="#d"/><path fill="#69C0FF" d="M-16 10.803L115.53-14v35.283L-16 68.803zm-8.136 74.115L119.61 29.063v7.843L-35 98.4z" mask="url(#e)" opacity=".207"/><path fill="#FFF" fill-rule="nonzero" d="M63.192 77.5c-3.834 0-7.377-2.144-9.294-5.625a11.723 11.723 0 0 1 0-11.25C55.815 57.144 59.358 55 63.192 55c5.926 0 10.73 5.037 10.73 11.25S69.118 77.5 63.192 77.5z" mask="url(#e)"/><path fill="#1890FF" fill-rule="nonzero" d="M63.438 44C51.35 44 41.551 54.297 41.551 67s9.799 23 21.887 23c12.089 0 21.887-10.297 21.887-23s-9.798-23-21.887-23zm0 33.895c-3.704 0-7.127-2.076-8.98-5.447a11.376 11.376 0 0 1 0-10.896c1.853-3.37 5.276-5.447 8.98-5.447 5.726 0 10.367 4.878 10.367 10.895 0 6.017-4.641 10.894-10.367 10.895z" mask="url(#e)"/><use mask="url(#f)" xlink:href="#a" stroke="#096DD9" stroke-dasharray="5" stroke-width="6" transform="rotate(-26 72.372 84.731)"/></g><g transform="rotate(33 -3.407 174.452)"><path fill="#FFF" fill-rule="nonzero" stroke="#1890FF" stroke-width="3" d="M9.459 80.938zm0 0l3.275-5.059c4.283-6.614.523-15.635-6.954-16.839l-7.28-1.172V43.852l1.204-.242 5.734-1.155c7.432-1.496 10.87-10.661 6.356-17.101l-4.307-6.145 9.523-9.966 1.057.75 6.245 4.43c6.107 4.328 14.46.707 15.865-6.942l1.65-8.981h13.544l.188 1.282.926 6.298c1.156 7.874 9.687 11.769 15.931 7.34l5.893-4.177 9.523 9.966-.707 1.008-3.6 5.137c-4.514 6.44-1.077 15.605 6.356 17.101l6.938 1.397v14.016l-1.262.203-6.017.969c-7.476 1.204-11.236 10.225-6.956 16.839l3.92 6.053-9.526 9.97-1.068-.82-3.453-2.65c-6.22-4.774-15.063-.94-16.247 7.109l-.84 5.711H41.829l-.226-1.228-1.104-6.001c-1.437-7.822-10.097-11.378-16.18-6.708l-5.977 4.587-9.526-9.97.644-.994z"/><mask id="h" fill="#fff"><use xlink:href="#g"/></mask><use fill="#E6F7FF" xlink:href="#g"/><path fill="#69C0FF" d="M-12.192 7.84l100.86-18.924v26.92l-100.86 36.257zm-6.075 57.184l110.26-42.857v6.018L-26.6 75.368z" mask="url(#h)" opacity=".207"/><path fill="#FFF" fill-rule="nonzero" d="M48.215 59.851c-2.97 0-5.715-1.69-7.2-4.433a9.381 9.381 0 0 1 0-8.867c1.485-2.744 4.23-4.434 7.2-4.433 4.59 0 8.311 3.97 8.311 8.867 0 4.896-3.72 8.866-8.311 8.866z" mask="url(#h)"/><path fill="#1890FF" fill-rule="nonzero" d="M48.768 33.25c-9.183 0-16.626 7.94-16.626 17.735 0 9.794 7.443 17.733 16.626 17.733 9.182 0 16.625-7.939 16.625-17.733 0-9.795-7.443-17.734-16.625-17.734zm0 26.135c-2.814 0-5.414-1.6-6.821-4.2a8.888 8.888 0 0 1 0-8.4c1.407-2.6 4.007-4.201 6.82-4.2 4.35 0 7.875 3.76 7.875 8.4 0 4.639-3.525 8.4-7.874 8.4z" mask="url(#h)"/><use mask="url(#i)" xlink:href="#b" stroke="#096DD9" stroke-dasharray="5" stroke-width="6" transform="rotate(-26 55.972 65.393)"/></g><g transform="rotate(94 -17.75 127.987)"><path fill="#FFF" fill-rule="nonzero" stroke="#1890FF" stroke-width="3" d="M62.928 29.24l5.213 1.05v10.552l-1.262.203-4.207.678c-4.899.789-7.374 6.726-4.555 11.081l2.934 4.532-7.186 7.52-1.068-.82-2.415-1.853c-4.07-3.123-9.859-.613-10.637 4.679l-.643 4.379H28.867l-.226-1.23-.771-4.194c-.945-5.142-6.612-7.47-10.594-4.414l-4.5 3.453-7.186-7.52.644-.995 2.29-3.536c2.82-4.356.345-10.293-4.555-11.082l-5.469-.88V30.288l1.204-.242 4.009-.807c4.871-.981 7.135-7.015 4.163-11.255l-3.223-4.6 7.183-7.516 1.057.75 4.366 3.096c3.996 2.832 9.463.462 10.387-4.566L28.867-1.5h10.235l.188 1.282.647 4.403c.76 5.177 6.345 7.727 10.43 4.83l4.439-3.146 7.182 7.517-.706 1.007-2.517 3.592c-2.972 4.24-.71 10.274 4.163 11.255z"/><mask id="k" fill="#fff"><use xlink:href="#j"/></mask><use fill="#E6F7FF" xlink:href="#j"/><path fill="#69C0FF" d="M-8.524 5.482L61.992-7.75v18.82L-8.524 36.42zm-4.247 39.978l77.087-29.962v4.207l-82.913 32.988z" mask="url(#k)" opacity=".207"/><path fill="#FFF" fill-rule="nonzero" d="M33.709 41.844c-2.077 0-3.996-1.18-5.034-3.099a6.559 6.559 0 0 1 0-6.2c1.038-1.918 2.957-3.1 5.034-3.099 3.21 0 5.81 2.776 5.81 6.2 0 3.423-2.6 6.198-5.81 6.198z" mask="url(#k)"/><path fill="#1890FF" fill-rule="nonzero" d="M34.095 23.247c-6.42 0-11.623 5.55-11.623 12.398s5.204 12.399 11.623 12.399c6.42 0 11.624-5.551 11.624-12.399 0-6.848-5.204-12.398-11.624-12.398zm0 18.271c-1.967 0-3.785-1.119-4.768-2.936a6.214 6.214 0 0 1 0-5.873c.983-1.818 2.801-2.937 4.768-2.937 3.041 0 5.506 2.63 5.506 5.873 0 3.243-2.465 5.873-5.506 5.873z" mask="url(#k)"/><use mask="url(#l)" xlink:href="#c" stroke="#096DD9" stroke-dasharray="5" stroke-width="6" transform="rotate(-26 39.132 45.719)"/></g></g></svg>