<svg xmlns="http://www.w3.org/2000/svg" xmlns:xlink="http://www.w3.org/1999/xlink" width="272" height="272" viewBox="0 0 272 272"><defs><path id="a" d="M85 34h14v14H85V34zm0-17h14v14H85V17zm0-17h14v14H85V0zM68 34h14v14H68V34zm0-17h14v14H68V17zm0-17h14v14H68V0zM51 34h14v14H51V34zm0-17h14v14H51V17zm0-17h14v14H51V0zM34 34h14v14H34V34zm0-17h14v14H34V17zm0-17h14v14H34V0zM17 34h14v14H17V34zm0-17h14v14H17V17zm0-17h14v14H17V0zM0 34h14v14H0V34zm0-17h14v14H0V17zM0 0h14v14H0V0z"/></defs><g fill="none" fill-rule="evenodd"><path fill="#E6F7FF" d="M89.379 70.236C106.842 55.517 116.22 44 136.497 44c26.771 0 38.93 12.998 57.704 45.745 14.72 14.839 39.864 20.335 51.228 53.194 3.215 15.67-8.136 27.588-12.514 46.391-2.715 11.664 3.323 28.445-7.41 37.852-41.055 22.76-118.438 12.99-140.35 14.295-10.49.806-42.939-4.63-51.852-38.392-6.743-24.626 8.527-22.316-4.617-69.514C17.091 80.488 68.346 69.56 89.38 70.236z"/><path fill="#69C0FF" d="M50.657 95c1.208 4.116 3.48 7.452 8.657 8.657-6.061.994-7.554 4.71-8.657 8.657-1.629-3.979-2.95-8.224-8.657-8.657 4.537-1.508 7.222-4.561 8.657-8.657z"/><path fill="#1890FF" d="M151.071 39c.987 3.362 2.843 6.087 7.071 7.071-4.95.812-6.17 3.847-7.07 7.071-1.331-3.25-2.411-6.718-7.072-7.07 3.706-1.232 5.899-3.726 7.071-7.072z"/><path fill="#69C0FF" d="M216.36 69.886c1.75 5.96 5.04 10.79 12.536 12.536-8.777 1.439-10.938 6.819-12.535 12.535-2.359-5.761-4.273-11.909-12.536-12.535 6.57-2.184 10.457-6.605 12.536-12.536z"/><path fill="#1890FF" d="M243.268 147c1.154 3.931 3.323 7.117 8.268 8.268-5.79.95-7.215 4.497-8.268 8.268-1.556-3.8-2.818-7.855-8.268-8.268 4.333-1.44 6.897-4.356 8.268-8.268z"/><path fill="#D8D8D8" d="M181.093 224.886c1.154 3.931 3.324 7.117 8.268 8.268-5.789.95-7.215 4.497-8.268 8.268-1.556-3.8-2.818-7.855-8.268-8.268 4.333-1.44 6.897-4.356 8.268-8.268zm-131 7c1.154 3.931 3.324 7.117 8.268 8.268-5.789.95-7.215 4.497-8.268 8.268-1.556-3.8-2.818-7.855-8.268-8.268 4.333-1.44 6.897-4.356 8.268-8.268z"/><path fill="#096DD9" d="M28.459 131.886c1.065 3.63 3.069 6.571 7.634 7.634-5.345.877-6.661 4.153-7.634 7.634-1.436-3.509-2.602-7.253-7.634-7.634 4-1.33 6.368-4.022 7.634-7.634z"/><path fill="#FFF" stroke="#1890FF" stroke-width="3" d="M76.5 66.5h25v74h-25z"/><path fill="#69C0FF" d="M78 68h22v10H78z"/><path fill="#E6F7FF" d="M78 81h22v58H78z"/><path fill="#FFF" d="M81 81h10v58H81zm0-13h5v10h-5z"/><path fill="#69C0FF" d="M95 81h5v58h-5z"/><path fill="#1890FF" d="M78 78h22v3H78z"/><path fill="#FFF" stroke="#1890FF" stroke-width="3" d="M123.5 66.5h25v74h-25z"/><path fill="#69C0FF" d="M125 68h22v10h-22z"/><path fill="#E6F7FF" d="M125 81h22v58h-22z"/><path fill="#FFF" d="M128 81h10v58h-10zm0-13h5v10h-5z"/><path fill="#69C0FF" d="M142 81h5v58h-5z"/><path fill="#1890FF" d="M125 78h22v3h-22z"/><g><path fill="#FFF" stroke="#1890FF" stroke-width="3" d="M168.5 66.5h25v74h-25z"/><path fill="#69C0FF" d="M170 68h22v10h-22z"/><path fill="#E6F7FF" d="M170 81h22v58h-22z"/><path fill="#FFF" d="M173 81h10v58h-10zm0-13h5v10h-5z"/><path fill="#69C0FF" d="M187 81h5v58h-5z"/><path fill="#1890FF" d="M170 78h22v3h-22z"/></g><path fill="#69C0FF" stroke="#1890FF" stroke-width="3" d="M46.5 150.5h175v103h-175z"/><path fill="#E6F7FF" d="M48 152h172v88H48z"/><path fill="#69C0FF" stroke="#1890FF" stroke-width="3" d="M45.87 140.5l-6.285 11h188.16l-6.287-11H45.87z"/><g><path fill="#1890FF" d="M99 169h88v54H82v-54h17z"/><g transform="translate(85 172)"><mask id="b" fill="#fff"><use xlink:href="#a"/></mask><use fill="#E6F7FF" fill-rule="nonzero" xlink:href="#a"/><path fill="#69C0FF" d="M72.651-5L16 50.596h10.127L80.574-5zm18 0L34 50.596h18.127L106.574-5zm26 0L60 50.596h42.127L156.574-5z" mask="url(#b)"/></g></g></g></svg>