<svg xmlns="http://www.w3.org/2000/svg" xmlns:xlink="http://www.w3.org/1999/xlink" width="16" height="16" viewBox="0 0 16 16">
    <defs>
        <path id="a" d="M10.418 4.951a.62.62 0 0 0 .622-.603V1.604A.62.62 0 0 0 10.418 1a.604.604 0 0 0-.603.604v2.744c0 .333.27.603.603.603zm-1.204-2.43H6.16v.912h3.054V2.52zm3.572 0h-1.134v.907h1.178c.346 0 .639.293.639.64v2.11H1.905v-2.11c0-.347.293-.64.64-.64H3.73V2.52H2.597C1.72 2.52 1 3.24 1 4.12v9.28C1 14.28 1.692 15 2.57 15h10.216c.879 0 1.598-.72 1.598-1.6V4.12c0-.88-.72-1.6-1.598-1.6zm.683 10.926c0 .347-.293.64-.64.64H2.545a.648.648 0 0 1-.639-.64v-6.36H13.47v6.36zM4.328 9.825a.916.916 0 1 0-.002-1.832.916.916 0 0 0 .002 1.832zm3.351 0a.916.916 0 1 0-.002-1.832.916.916 0 0 0 .002 1.832zm-3.368 3.353a.916.916 0 1 0-.001-1.832.916.916 0 0 0 .001 1.832zm3.368 0a.916.916 0 1 0-.002-1.832.916.916 0 0 0 .002 1.832zm3.347-3.353a.916.916 0 1 0-.002-1.832.916.916 0 0 0 .002 1.832zM4.939 4.951a.62.62 0 0 0 .622-.603V1.604A.62.62 0 0 0 4.94 1a.604.604 0 0 0-.603.604v2.744c0 .333.27.603.603.603z"/>
    </defs>
    <g fill="none" fill-rule="evenodd">
        <mask id="b" fill="#fff">
            <use xlink:href="#a"/>
        </mask>
        <use fill="#FFF" fill-rule="nonzero" xlink:href="#a"/>
        <g fill="#58666E" mask="url(#b)">
            <path d="M0 0h15.802v15.802H0z"/>
        </g>
    </g>
</svg>
