<?xml version="1.0" encoding="UTF-8"?>
<svg width="1120px" height="760px" viewBox="0 0 1120 760" version="1.1" xmlns="http://www.w3.org/2000/svg" xmlns:xlink="http://www.w3.org/1999/xlink">
    <!-- Generator: sketchtool 50.2 (55047) - http://www.bohemiancoding.com/sketch -->
    <title>4A72D5B7-F95D-4DB5-AD4B-28C7A1102BF6</title>
    <desc>Created with sketchtool.</desc>
    <defs>
        <linearGradient x1="100%" y1="0%" x2="1.69786534%" y2="100%" id="linearGradient-1">
            <stop stop-color="#F6F9FC" offset="0%"></stop>
            <stop stop-color="#E3ECF4" offset="100%"></stop>
        </linearGradient>
        <rect id="path-2" x="0" y="0" width="584" height="406" rx="4"></rect>
        <linearGradient x1="116.00698%" y1="50%" x2="0%" y2="50%" id="linearGradient-4">
            <stop stop-color="#10F4D7" offset="0%"></stop>
            <stop stop-color="#004355" offset="100%"></stop>
        </linearGradient>
        <linearGradient x1="50%" y1="0%" x2="50%" y2="100%" id="linearGradient-5">
            <stop stop-color="#10F4D7" offset="0%"></stop>
            <stop stop-color="#004355" offset="100%"></stop>
        </linearGradient>
        <linearGradient x1="100%" y1="50%" x2="0%" y2="50%" id="linearGradient-6">
            <stop stop-color="#10F4D7" offset="0%"></stop>
            <stop stop-color="#004355" offset="100%"></stop>
        </linearGradient>
        <linearGradient x1="101.553717%" y1="0%" x2="0%" y2="71.7585829%" id="linearGradient-7">
            <stop stop-color="#10F4D7" offset="0%"></stop>
            <stop stop-color="#004355" offset="100%"></stop>
        </linearGradient>
        <path d="M19.0592868,1.54289154 C23.443737,2.16477581 26.7512696,1.79459307 28.9818847,0.432343339 C31.8965696,1.8602103 32.957949,4.52317958 32.1660228,8.42125118 C28.0976192,14.1455005 20.4069587,20.4005984 12.0102486,28.1114166 C8.45284087,30.0505403 -0.738263436,31.0340103 1.26268057,27.1620233 C5.87765181,22.3698345 17.435176,14.1029888 19.0592868,1.54289154 Z" id="path-8"></path>
        <path d="M19.0592868,1.54289154 C23.443737,2.16477581 26.7512696,1.79459307 28.9818847,0.432343339 C31.8965696,1.8602103 32.957949,4.52317958 32.1660228,8.42125118 C28.0976192,14.1455005 20.4069587,20.4005984 12.0102486,28.1114166 C8.45284087,30.0505403 -0.738263436,31.0340103 1.26268057,27.1620233 C5.87765181,22.3698345 17.435176,14.1029888 19.0592868,1.54289154 Z" id="path-10"></path>
        <path d="M3.57062981,0.600737376 C7.76295073,-0.304700697 10.7583751,1.46304318 12.5569029,5.903969 C12.0720414,10.6784058 12.0720414,14.0943458 12.5569029,16.1517891 C15.6283604,18.3546126 19.5442735,24.1274047 24.304642,33.4701655 C25.6930776,36.5493924 26.2497637,38.5145976 25.9747004,39.3657813 C25.3080051,41.4288706 21.9071627,41.7586018 18.9087372,39.3657813 C16.1612522,37.1732178 12.3453291,32.8576514 7.46096806,26.4190821 C-0.57939454,19.3009132 -2.17377363,15.2246151 3.57062981,0.600737376 Z" id="path-12"></path>
        <path d="M3.57062981,0.600737376 C7.76295073,-0.304700697 10.7583751,1.46304318 12.5569029,5.903969 C12.0720414,10.6784058 12.0720414,14.0943458 12.5569029,16.1517891 C15.6283604,18.3546126 19.5442735,24.1274047 24.304642,33.4701655 C25.6930776,36.5493924 26.2497637,38.5145976 25.9747004,39.3657813 C25.3080051,41.4288706 21.9071627,41.7586018 18.9087372,39.3657813 C16.1612522,37.1732178 12.3453291,32.8576514 7.46096806,26.4190821 C-0.57939454,19.3009132 -2.17377363,15.2246151 3.57062981,0.600737376 Z" id="path-14"></path>
        <path d="M8,0 C12.0692375,1.14924558 14.4867166,2.43871894 15.2524372,3.8684201 C15.6930299,4.69106474 15.0850209,6.78011007 13.4284102,10.1355561 C25.7980945,16.1211813 33.7542637,22.0805507 35,28 C20.8436466,25.5968657 11.1323247,21.3597389 0.866845166,14 C1.0138062,7.90053622 5.13028539,4.28814345 8,0 Z" id="path-16"></path>
        <path d="M2.11331217,0.931517548 C7.55765689,0.385052563 10.6626896,0.826670646 11.4284102,2.2563718 C11.8690029,3.07901644 11.8690029,6.70541121 11.4284102,13.1355561 C23.7980945,19.1211813 33.6091917,25.0326748 34.854928,30.9521242 C20.6985746,28.5489899 10.4991756,26.047436 0.233696078,18.6876971 C0.380657114,12.5882333 2.11331217,5.89945499 2.11331217,0.931517548 Z" id="path-18"></path>
        <path d="M2,0 L13.1744522,0 L15.2778261,6.39011827 L26,13.0890035 C26.5266469,16.6680262 25.9922777,18.9716917 24.3968926,20 C20.6034821,21.2409861 18.8488648,19.9818181 15.2778261,18.9706436 C12.8971336,18.2965274 10.1742981,16.8566194 7.10931967,14.6509197 C2.60237617,13.0279797 0.348904424,11.0103731 0.348904424,8.59809987 C0.348904424,6.18582666 0.899269616,3.31979337 2,0 Z" id="path-20"></path>
        <path d="M2,0 L13.1744522,0 L15.2778261,6.39011827 L26.9621511,9.90869549 C34.4351895,12.6378032 37.611752,15.2518682 36.4918385,17.7508905 C35.5056319,19.8977865 18.8488648,17.1350427 15.2778261,16.1238683 C12.8971336,15.449752 10.1742981,14.9587691 7.10931967,14.6509197 C2.60237617,13.0279797 0.348904424,11.0103731 0.348904424,8.59809987 C0.348904424,6.18582666 0.899269616,3.31979337 2,0 Z" id="path-22"></path>
        <path d="M32.5730504,88 C33.7917564,86.6431034 34.4011094,85.1389493 34.4011094,83.4875377 C34.4011094,81.0104204 37.0310719,79.429278 40.6293513,79.429278 C41.7718248,81.6987103 45.9111769,89.0518329 50.534339,96.3107752 C47.8771056,105.825141 59.2952416,109.107471 65.0273644,113.063516 C67.9766795,89.3690903 53.3401731,74.220008 54.2859247,74.0111338 C67.3625249,64.6954878 79.8334061,24.0031513 83.5965594,0.0425069404 C98.607039,0.0425069404 88.7328008,0.897049766 90.6399889,2.21613468 C88.2376147,21.4807514 82.4844725,60.9087065 73.3805623,120.5 C84.2448691,129.099175 91.5847128,134.858883 95.4000933,137.779125 C99.4206351,140.306671 105.329583,137.938822 107.656162,139.83656 C109.00736,140.938703 107.85169,147.318981 107.656162,150.407091 C104.255601,150.229327 86.7801172,149.255909 81.7791668,150.407091 C88.7328008,176.196208 89.6770225,190.476068 101.332959,207.922023 C103.389951,211.000814 103.732107,213.955292 103.08404,216.854305 C102.412624,219.857762 98.2646071,224.141087 90.6399889,229.70428 C79.5361677,210.510081 72.5362252,182.607405 69.6401612,145.996252 C65.1333386,143.129274 58.7647312,139.458096 50.534339,134.982719 C48.3511588,173.926932 50.1234434,210.070717 53.611151,245 L16.2390899,231.904926 C8.98280433,226.695632 5.04219567,222.741549 4.41726395,220.042678 C-4.24640675,182.627177 2.60375719,152.109481 7.42198507,129.577666 C12.7615388,104.607938 21.1452272,90.7487161 32.5730504,88 Z" id="path-24"></path>
    </defs>
    <g id="Symbols" stroke="none" stroke-width="1" fill="none" fill-rule="evenodd">
        <g id="Img/login">
            <path d="M6.66256851,668.113165 C8.2333795,666.18132 9.41164888,663.792491 13.6791163,665 C198.911564,665 337.8359,665 430.452124,665 C437.971805,665 437.971805,668.718007 437.640356,670.372217 C434.683155,685.131144 411.243074,689.272427 380.252913,689.5 C353.871519,699.527325 331.028546,705.588473 311.723992,707.683444 C290.704353,709.964541 263.159613,704.394045 237.831168,704.549334 C200.246104,704.779768 165.808684,709.638895 136.900387,708.780781 C96.3306853,707.57651 63.2927091,703.155879 34.9438215,689.5 C13.5338913,683.613907 4.10680697,676.484962 6.66256851,668.113165 Z" id="shadow01" fill="#F6FAFD"></path>
            <path d="M587.78725,665 L1105.00723,665 C1118.68521,668.789851 1118.24166,676.263804 1116.06114,684.190907 C1102.19912,687.53541 1092.68846,689.305108 1087.52917,689.5 C1044.46033,691.126925 1062.35009,699.236263 1037.74504,705.341125 C980.122801,706.774292 897.119887,718.694825 878.362591,719.972701 C827.335662,723.449006 779.414917,708.27751 761.518749,707.867176 C708.371898,706.648592 717.177541,702.598762 676.573452,703.923157 C624.672717,705.616017 646.374577,681.646879 606.024736,689.5 C595.792974,690.15581 589.714891,686.900268 587.790485,679.733376 L587.78725,665 Z" id="shadow02" fill="#F6FAFD"></path>
            <g id="plant" transform="translate(210.000000, 168.000000)">
                <polygon id="Rectangle-19" fill="#EEF5FB" points="48 457 122 457 115.653319 523 55.1791063 523"></polygon>
                <path d="M48,3 C62.0389417,34.8868388 69.6558433,54.3930752 70.8507051,61.5187093 C71.6659009,66.3801815 70.620679,75.4510566 71.6111106,89.0336329 C71.9186302,93.2508946 72.6497994,100.655974 73.8046181,111.248872 C72.400734,111.913347 71.4592949,111.913347 70.9803007,111.248872 C70.9578731,107.478249 69.7795973,103.498363 69.6169679,102.178215 C68.8816938,96.2096129 67.4130626,93.275807 66.0702004,88.7776361 C57.8285248,85.1761847 51.8051247,56.5836394 48,3 Z" id="Rectangle-20" fill="#AED9D4"></path>
                <path d="M79,0 C106.169246,22.4125846 123.316215,38.0869212 130.440907,47.0230098 C133.0501,50.295569 152.545937,74.9961294 153.536369,88.5787057 C153.843889,92.7959674 154.575058,100.201047 155.729876,110.793945 C154.325992,111.45842 153.384553,111.45842 152.905559,110.793945 C152.883131,107.023321 151.704856,103.043435 151.542226,101.723288 C150.806952,95.7546856 149.338321,92.8208798 147.995459,88.3227088 C114.525097,72.7142744 91.5266103,43.2733714 79,0 Z" id="Rectangle-20-Copy-4" fill="#AED9D4" transform="translate(117.364938, 55.646151) scale(-1, 1) translate(-117.364938, -55.646151) "></path>
                <path d="M85.2341796,265.322275 C93.680727,272.853343 101.466347,281.086921 108.591039,290.02301 C111.200232,293.295569 130.091548,316.923375 131.686501,331.578706 C135.48655,335.479236 133.759051,377.490382 126.504003,457.612144 C125.100119,458.276619 124.158679,458.276619 123.679685,457.612144 C123.657258,453.84152 126.961621,376.529664 126.504003,376.060293 C120.382994,365.783345 118.792205,349.221459 117.449342,344.723288 C116.554101,341.724508 105.815713,315.257503 85.2341796,265.322275 Z" id="Rectangle-20-Copy-5" fill="#00AC96" transform="translate(109.440004, 361.716388) scale(-1, 1) translate(-109.440004, -361.716388) "></path>
                <path d="M54,231 C68.0389417,262.886839 75.6558433,282.393075 76.8507051,289.518709 C77.6129836,303.078031 75.8602735,327.031494 76.8507051,340.61407 C77.1582247,344.831332 78.9560075,383.767545 82.2440534,457.422709 C80.8401693,458.087184 79.8987302,458.087184 79.4197361,457.422709 C79.3973085,453.652085 72.2328298,334.219919 72.0702004,332.899772 C71.3349263,326.931169 73.4130626,321.275807 72.0702004,316.777636 C63.8285248,313.176185 57.8051247,284.583639 54,231 Z" id="Rectangle-20-Copy" fill="#AED9D4"></path>
                <path d="M0,275 C22.9577604,294.503647 35.3351181,304.284376 37.132073,304.342188 C41.9902072,311.912295 54.2020343,338.457719 54.9211001,351.443518 C55.2286197,355.66078 57.2432768,390.93849 60.9650715,457.27665 C59.5611874,457.941125 58.6197483,457.941125 58.1407541,457.27665 C58.1183265,453.506026 52.4220308,361.538466 51.9558122,361.374629 C48.1704983,360.044401 28.5985431,332.816907 30.4825357,323.411467 C23.0821033,320.177623 15.2033928,305.590898 3.66071034,289.197281 C2.8653509,287.420294 1.64511411,282.687867 0,275 Z" id="Rectangle-20-Copy-2" fill="#AED9D4"></path>
                <path d="M7.94212511,337.688132 C16.5054439,362.027171 21.6855808,374.225596 23.4825357,374.283408 C28.3406699,381.853515 41.8044289,409.356616 49.82635,422.341324 C52.3803762,427.733579 56.6841348,439.289768 62.7376258,457.00989 C61.0232468,457.674365 59.9265603,457.674365 59.4475661,457.00989 C59.4251385,453.239266 44.9566476,420.607356 44.4904289,420.443518 C40.7051151,419.113291 28.8637115,406.42179 21.9266989,396.535817 C14.4155831,389.945068 15.687849,392.278821 11.8288587,380.607748 C11.0334992,378.83076 9.73792138,364.524222 7.94212511,337.688132 Z" id="Rectangle-20-Copy-3" fill="#AED9D4"></path>
            </g>
            <g id="dashobard01" transform="translate(393.000000, 147.000000)">
                <mask id="mask-3" fill="white">
                    <use xlink:href="#path-2"></use>
                </mask>
                <use id="Rectangle" fill="url(#linearGradient-1)" xlink:href="#path-2"></use>
                <rect id="Rectangle-2" fill="#FFFFFF" mask="url(#mask-3)" x="43" y="22" width="520" height="180" rx="4"></rect>
                <rect id="Rectangle-3" fill="#E4EBF0" mask="url(#mask-3)" x="80" y="126" width="2" height="44"></rect>
                <rect id="Rectangle-4" fill="#DAE3ED" mask="url(#mask-3)" x="173" y="172" width="19" height="6"></rect>
                <rect id="Rectangle-4-Copy" fill="#DAE3ED" mask="url(#mask-3)" x="221" y="172" width="19" height="6"></rect>
                <rect id="Rectangle-4-Copy-2" fill="#DAE3ED" mask="url(#mask-3)" x="271" y="172" width="19" height="6"></rect>
                <rect id="Rectangle-4-Copy-3" fill="#DAE3ED" mask="url(#mask-3)" x="323" y="172" width="19" height="6"></rect>
                <rect id="Rectangle-4-Copy-4" fill="#DAE3ED" mask="url(#mask-3)" x="372" y="172" width="19" height="6"></rect>
                <rect id="Rectangle-4-Copy-5" fill="#DAE3ED" mask="url(#mask-3)" x="441" y="132" width="35" height="5"></rect>
                <rect id="Rectangle-4-Copy-6" fill="#DAE3ED" mask="url(#mask-3)" x="441" y="142" width="35" height="5"></rect>
                <rect id="Rectangle-4-Copy-7" fill="#DAE3ED" mask="url(#mask-3)" x="441" y="152" width="35" height="5"></rect>
                <rect id="Rectangle-4-Copy-8" fill="#DAE3ED" mask="url(#mask-3)" x="490" y="132" width="2" height="34"></rect>
                <rect id="Rectangle-3-Copy-4" fill="#E4EBF0" mask="url(#mask-3)" x="180" y="126" width="2" height="44"></rect>
                <rect id="Rectangle-3-Copy-5" fill="#E4EBF0" mask="url(#mask-3)" x="280" y="126" width="2" height="44"></rect>
                <rect id="Rectangle-3-Copy-6" fill="#E4EBF0" mask="url(#mask-3)" x="380" y="126" width="2" height="44"></rect>
                <rect id="Rectangle-3-Copy" fill="#E4EBF0" mask="url(#mask-3)" transform="translate(131.000000, 122.500000) scale(-1, 1) translate(-131.000000, -122.500000) " x="129" y="75" width="4" height="95"></rect>
                <rect id="Rectangle-3-Copy-2" fill="#E4EBF0" mask="url(#mask-3)" transform="translate(230.000000, 122.500000) scale(-1, 1) translate(-230.000000, -122.500000) " x="228" y="75" width="4" height="95"></rect>
                <rect id="Rectangle-3-Copy-3" fill="#E4EBF0" mask="url(#mask-3)" transform="translate(334.000000, 122.500000) scale(-1, 1) translate(-334.000000, -122.500000) " x="332" y="75" width="4" height="95"></rect>
                <circle id="Oval" fill="#DBE4EE" mask="url(#mask-3)" cx="22" cy="44" r="5"></circle>
                <circle id="Oval-Copy" fill="#DBE4EE" mask="url(#mask-3)" cx="22" cy="88" r="5"></circle>
                <circle id="Oval-Copy-2" fill="#DBE4EE" mask="url(#mask-3)" cx="22" cy="129" r="5"></circle>
                <path d="M38.1876987,225.691942 L-65.0347424,366.619581 C-51.0126161,452.492909 -33.8088759,498.206289 -13.4235219,503.759723 C17.1545091,512.089873 171.288625,503.759723 185.870778,503.759723 C200.452931,503.759723 242.232899,420.192456 242.232899,410.46907 C242.232899,403.986812 250.268257,352.999816 266.338973,257.508081 L38.1876987,225.691942 Z" id="Path-14" fill="#DFE4F1" mask="url(#mask-3)"></path>
            </g>
            <g id="dashboard02" transform="translate(372.047203, 383.065859) rotate(-352.000000) translate(-372.047203, -383.065859) translate(114.047203, 294.065859)">
                <rect id="Rectangle-8" fill="#FFFFFF" x="0" y="0" width="516" height="178"></rect>
                <text id="65%" font-family="PingFangSC-Semibold, PingFang SC" font-size="12" font-weight="500" line-spacing="16" fill="#046D74">
                    <tspan x="116" y="32">65%</tspan>
                </text>
                <text id="22%" font-family="PingFangSC-Semibold, PingFang SC" font-size="12" font-weight="500" line-spacing="16" fill="#046D74">
                    <tspan x="116" y="68">22%</tspan>
                </text>
                <text id="36%" font-family="PingFangSC-Semibold, PingFang SC" font-size="12" font-weight="500" line-spacing="16" fill="#046D74">
                    <tspan x="116" y="104">36%</tspan>
                </text>
                <text id="84%" font-family="PingFangSC-Semibold, PingFang SC" font-size="12" font-weight="500" line-spacing="16" fill="#046D74">
                    <tspan x="116" y="140">84%</tspan>
                </text>
                <rect id="Rectangle-9" fill="#DEE8EF" x="163" y="22" width="4" height="128"></rect>
                <rect id="Rectangle-9-Copy" fill="#DEE8EF" x="331" y="22" width="4" height="128"></rect>
                <rect id="Rectangle-9-Copy-2" fill="#DEE8EF" x="365" y="54" width="4" height="96" rx="2"></rect>
                <rect id="Rectangle-9-Copy-3" fill="#DEE8EF" x="397" y="54" width="4" height="96" rx="2"></rect>
                <rect id="Rectangle-9-Copy-4" fill="#DEE8EF" x="428" y="54" width="4" height="96" rx="2"></rect>
                <rect id="Rectangle-9-Copy-5" fill="#DEE8EF" x="459" y="54" width="4" height="96" rx="2"></rect>
                <rect id="Rectangle-9-Copy-6" fill="#DEE8EF" x="490" y="54" width="4" height="96" rx="2"></rect>
                <rect id="Rectangle-10" fill="#DEE8EF" x="187" y="24" width="38" height="5"></rect>
                <rect id="Rectangle-10-Copy-4" fill="#DEE8EF" x="26" y="22" width="32" height="9"></rect>
                <rect id="Rectangle-10-Copy-8" fill="#DEE8EF" x="23" y="39" width="118" height="4" rx="2"></rect>
                <rect id="Rectangle-10-Copy-11" fill="#DEE8EF" x="23" y="73" width="118" height="4" rx="2"></rect>
                <rect id="Rectangle-10-Copy-12" fill="#DEE8EF" x="23" y="108" width="118" height="4" rx="2"></rect>
                <rect id="Rectangle-10-Copy-13" fill="#DEE8EF" x="23" y="144" width="118" height="4" rx="2"></rect>
                <rect id="Rectangle-10-Copy-8" fill="url(#linearGradient-4)" x="23" y="37" width="79" height="8" rx="4"></rect>
                <rect id="Rectangle-10-Copy-19" fill="url(#linearGradient-5)" x="363" y="63" width="8" height="34" rx="4"></rect>
                <rect id="Rectangle-10-Copy-20" fill="url(#linearGradient-5)" x="395" y="91" width="8" height="40" rx="4"></rect>
                <rect id="Rectangle-10-Copy-48" fill="url(#linearGradient-5)" x="426" y="63" width="8" height="72" rx="4"></rect>
                <rect id="Rectangle-10-Copy-49" fill="url(#linearGradient-5)" x="457" y="77" width="8" height="30" rx="4"></rect>
                <rect id="Rectangle-10-Copy-50" fill="url(#linearGradient-5)" x="488" y="86" width="8" height="21" rx="4"></rect>
                <rect id="Rectangle-10-Copy-9" fill="url(#linearGradient-4)" x="23" y="71" width="26" height="8" rx="4"></rect>
                <rect id="Rectangle-10-Copy-10" fill="url(#linearGradient-4)" x="23" y="106" width="50" height="8" rx="4"></rect>
                <rect id="Rectangle-10-Copy-14" fill="url(#linearGradient-6)" x="23" y="142" width="96" height="8" rx="4"></rect>
                <rect id="Rectangle-10-Copy-5" fill="#DEE8EF" x="26" y="58" width="32" height="9"></rect>
                <rect id="Rectangle-10-Copy-6" fill="#DEE8EF" x="26" y="93" width="32" height="9"></rect>
                <rect id="Rectangle-10-Copy-7" fill="#DEE8EF" x="26" y="129" width="32" height="9"></rect>
                <rect id="Rectangle-10-Copy-3" fill="#DEE8EF" x="366" y="27" width="38" height="5"></rect>
                <rect id="Rectangle-10-Copy" fill="#DEE8EF" x="187" y="33" width="34" height="5"></rect>
                <rect id="Rectangle-10-Copy-2" fill="#DEE8EF" x="187" y="44" width="13" height="5"></rect>
                <rect id="Rectangle-10-Copy-15" fill="#DEE8EF" x="242" y="71" width="6" height="6"></rect>
                <rect id="Rectangle-10-Copy-22" fill="#DEE8EF" x="242" y="89" width="6" height="6"></rect>
                <rect id="Rectangle-10-Copy-29" fill="#DEE8EF" x="242" y="107" width="6" height="6"></rect>
                <rect id="Rectangle-10-Copy-36" fill="#DEE8EF" x="242" y="126" width="6" height="6"></rect>
                <rect id="Rectangle-10-Copy-43" fill="#DEE8EF" x="242" y="143" width="6" height="6"></rect>
                <rect id="Rectangle-10-Copy-23" fill="#DEE8EF" x="188" y="89" width="6" height="6"></rect>
                <rect id="Rectangle-10-Copy-30" fill="#DEE8EF" x="188" y="107" width="6" height="6"></rect>
                <rect id="Rectangle-10-Copy-37" fill="#DEE8EF" x="188" y="126" width="6" height="6"></rect>
                <rect id="Rectangle-10-Copy-44" fill="#DEE8EF" x="188" y="143" width="6" height="6"></rect>
                <rect id="Rectangle-10-Copy-24" fill="#DEE8EF" x="206" y="89" width="6" height="6"></rect>
                <path d="M206,107 L212,107 L212,113 L206,113 L206,107 Z M278,71 L284,71 L284,77 L278,77 L278,71 Z M278,89 L284,89 L284,95 L278,95 L278,89 Z M278,107 L284,107 L284,113 L278,113 L278,107 Z M278,126 L284,126 L284,132 L278,132 L278,126 Z M296,71 L302,71 L302,77 L296,77 L296,71 Z M296,89 L302,89 L302,95 L296,95 L296,89 Z M296,107 L302,107 L302,113 L296,113 L296,107 Z M296,126 L302,126 L302,132 L296,132 L296,126 Z" id="Combined-Shape" fill="url(#linearGradient-7)"></path>
                <rect id="Rectangle-10-Copy-38" fill="#DEE8EF" x="206" y="126" width="6" height="6"></rect>
                <rect id="Rectangle-10-Copy-45" fill="#DEE8EF" x="206" y="143" width="6" height="6"></rect>
                <rect id="Rectangle-10-Copy-21" fill="#DEE8EF" x="224" y="71" width="6" height="6"></rect>
                <rect id="Rectangle-10-Copy-25" fill="#DEE8EF" x="224" y="89" width="6" height="6"></rect>
                <rect id="Rectangle-10-Copy-32" fill="#DEE8EF" x="224" y="107" width="6" height="6"></rect>
                <rect id="Rectangle-10-Copy-39" fill="#DEE8EF" x="224" y="126" width="6" height="6"></rect>
                <rect id="Rectangle-10-Copy-46" fill="#DEE8EF" x="224" y="143" width="6" height="6"></rect>
                <rect id="Rectangle-10-Copy-16" fill="#DEE8EF" x="260" y="71" width="6" height="6"></rect>
                <rect id="Rectangle-10-Copy-26" fill="#DEE8EF" x="260" y="89" width="6" height="6"></rect>
                <rect id="Rectangle-10-Copy-33" fill="#DEE8EF" x="260" y="107" width="6" height="6"></rect>
                <rect id="Rectangle-10-Copy-40" fill="#DEE8EF" x="260" y="126" width="6" height="6"></rect>
                <rect id="Rectangle-10-Copy-47" fill="#DEE8EF" x="260" y="143" width="6" height="6"></rect>
            </g>
            <g id="people05" transform="translate(913.000000, 269.000000)">
                <path d="M65.9995492,218 L124.767501,218 C124.271173,246.715579 122.983608,275.626331 120.904807,304.732255 C124.77603,346.919887 133.324785,369.047399 134.165742,374.074246 C134.726379,377.425478 134.726379,380.734063 134.165742,384 C131.188736,385.343868 128.005246,384.906272 124.767501,384.000591 C109.201859,336.676877 100.188158,312.138146 97.7263961,310.384398 C97.3929201,314.670113 97.3929201,339.208844 97.7263961,384.000591 C94.900438,384.975468 92.0268856,385.536423 88.9122376,384.000591 C82.4999706,351.934633 76.7728455,321.043351 71.7308622,291.326745 C68.1475114,266.031944 66.2370738,241.589696 65.9995492,218 Z" id="Rectangle-11" fill="#273AAF"></path>
                <path d="M63.8883684,201.179985 L126.918952,202 C131.017179,203.703679 131.594543,207.225318 131.477796,213.338329 C125.876742,221.777368 113.92885,226.299803 101.94665,230.995087 C88.4917167,233.706644 76.6063976,235.590302 63.8883684,233.877042 C58.4802536,232.632593 73.0772063,204.310611 63.8883684,201.179985 Z" id="Rectangle-7" fill="#CCD5FF"></path>
                <path d="M48.007907,28.5749642 C69.5463211,58.8426123 101.223266,99.8567893 104.00035,128 L81.8852477,122.300073 L74.8248876,103.294327 C54.1359133,62.6757652 42.5276174,40.4417578 40,36.5923043 C38.2898687,33.7235832 40.9591711,31.0511365 48.007907,28.5749642 Z" id="Rectangle-14" fill="#BCC2FC"></path>
                <rect id="Rectangle-12" fill="#FDD9CC" x="74" y="107" width="12" height="20"></rect>
                <path d="M58,124.010196 C64.3311857,124.072608 69.2084898,123.963973 72.6319122,123.684292 C77.1356083,125.74714 82.5204974,125.017389 88.7865796,121.49504 C99.1182013,125.203813 106.181009,131.010509 109.975002,138.915128 C115.917788,155.298498 114.916338,163.887085 114.916338,176.683345 C117.603749,182.045427 129,185.90169 129,199.222567 C118.913932,223.723529 64.7866752,230.302523 58,214.086944 C59.3594623,194.796574 60.0391934,180.264578 60.0391934,170.490957 C60.0391934,160.247523 59.3594623,144.753936 58,124.010196 Z" id="Rectangle-6" fill="#00AC96"></path>
                <path d="M3.16076039,56.3454449 C4.40700841,51.4049067 7.6948264,50.5862088 11.2432201,51.4250003 C15.2665603,66.5468686 20.2628266,83.4105524 27.7370754,96.4184696 C37.5315691,109.402035 51.4827271,113.930857 66.439415,124.960042 C69.7208464,128.336809 69.9074925,157.442406 66.439415,172.654804 C63.271794,175.079043 61.0146001,175.079043 59.6678332,172.654804 C53.7853229,162.066028 53.0806209,146.045438 48.7086397,141.035392 C37.9062959,128.656508 18.1074624,115.977176 13.0367784,106.575514 C9.2433748,97.3433415 5.95136881,80.5999853 3.16076039,56.3454449 Z" id="Rectangle-5" fill="#B8C3FE"></path>
                <path d="M6.58227805,50.5474982 C9.61984417,50.5474982 10.1485734,49.6949454 10.365046,45.1493796 C11.1702643,40.9699267 10.446734,39.1539056 8.77593562,42.4186642 C8.68510314,41.8606153 7.64196637,42.051768 7.54564395,41.5460439 C8.15681156,37.3881475 8.55332238,34.8744185 5.5,35 C2.46243388,35 0.260549018,38.5401035 0.260549018,43.2345239 C0.260549018,46.2198113 1.15098552,48.9530117 2.58051825,50.5474982 C3.39895249,51.4603716 5.4763685,50.5474982 6.58227805,50.5474982 Z" id="Oval-2" fill="#FDD9CC"></path>
                <path d="M80,113 C86.627417,113 91.3299403,107.851275 91.3299403,101.5 C91.3299403,95.1487254 89.0602623,90.4706648 82.4328453,90.4706648 C78.3057811,91.2543593 70.5200667,96.9178471 69.6524533,104.797162 C69.8998624,107.934405 73.4462591,111.067455 80,113 Z" id="Oval-3" fill="#FDD9CC"></path>
                <path d="M89,113.305484 C90.4417155,113.305484 95.309395,113.018275 98,108.014521 C100.001716,107.754582 101.413659,107.75672 104.06088,111 C107.874738,128.637891 97.7810928,119.659827 99.432244,132.451 C100.372815,144.247807 120.068189,146.972315 123.278178,157.008162 C127.695303,164.745322 106.046253,163.814644 106.189039,169.080268 C106.199312,181.223254 132.853812,180.215187 137.237321,162.764806 C140.032407,151.637802 130.204243,143.750579 125.909963,133.631297 C121.715149,123.746405 126.082539,116.579139 120.670137,108.014521 C115.186441,102.296199 104.62655,102.648163 99.432244,102.046933 C99.3977707,101.172246 98,100.424654 98,100 C98,92.2680135 92.7566929,86.3972211 88.1676532,86.2669237 C83.1970904,86.2669237 80,92.2680135 80,100 C80,103.389433 91.9841653,102.407267 83.83755,105.705364 C77.4933224,109.945886 86.2083587,113.305484 89,113.305484 Z" id="Oval-4" fill="#2536AC"></path>
                <ellipse id="Oval-6" fill="#FDD9CC" cx="39.5" cy="25" rx="7.5" ry="8"></ellipse>
                <g id="cirlce" transform="translate(11.000000, 0.000000)" stroke-width="6">
                    <circle id="Oval-5" stroke="#D7E1EC" cx="17" cy="17" r="14"></circle>
                    <circle id="Oval-5" stroke="" cx="17" cy="17" r="14"></circle>
                </g>
                <ellipse id="Oval-7" fill="#FDD9CC" transform="translate(32.708603, 23.670643) rotate(-44.000000) translate(-32.708603, -23.670643) " cx="32.7086027" cy="23.6706426" rx="5.5" ry="3.96199618"></ellipse>
                <g id="Path-8" transform="translate(70.000000, 383.000000)">
                    <mask id="mask-9" fill="white">
                        <use xlink:href="#path-8"></use>
                    </mask>
                    <use id="Mask" fill="#506AF2" xlink:href="#path-8"></use>
                    <path d="M31.6372757,5.46312868 C29.0960047,4.58204493 26.9522031,5.37001631 25.2058711,7.82704279 C22.7672474,15.0654403 10.791871,27.855007 8.35728227,28.6158052 C5.92269349,29.3766033 7.91167305,36.1455557 9.62095018,36.1455557 C10.7604683,36.1455557 19.8503261,28.7523066 36.8905237,13.9658085 L31.6372757,5.46312868 Z" fill="#0514A1" mask="url(#mask-9)"></path>
                </g>
                <g id="Path-8-Copy" transform="translate(105.000000, 383.000000)">
                    <mask id="mask-11" fill="white">
                        <use xlink:href="#path-10"></use>
                    </mask>
                    <use id="Mask" fill="#506AF2" xlink:href="#path-10"></use>
                    <path d="M31.6372757,5.46312868 C29.0960047,4.58204493 26.9522031,5.37001631 25.2058711,7.82704279 C22.7672474,15.0654403 10.791871,27.855007 8.35728227,28.6158052 C5.92269349,29.3766033 7.91167305,36.1455557 9.62095018,36.1455557 C10.7604683,36.1455557 19.8503261,28.7523066 36.8905237,13.9658085 L31.6372757,5.46312868 Z" id="Path-8" fill="#0514A1" mask="url(#mask-11)"></path>
                </g>
            </g>
            <g id="people04" transform="translate(463.000000, 213.000000)">
                <path d="M332.688687,233.592235 C352.274886,215.468551 368.123597,206.406709 380.234821,206.406709 C392.346044,206.406709 399.999419,206.860758 403.194944,207.768857 C409.793745,219.998014 415.040425,227.175858 415.040425,239.688218 C422.159197,247.600902 384.088585,297.938574 380.234821,325.67259 C375.823301,326.759203 372.622792,325.469699 370.633294,321.804077 C370.633294,314.468956 372.441366,294.404017 374.374303,283.509958 C377.44956,266.177758 380.406817,257.880083 373.617541,253.712026 C368.874718,258.909535 353.422395,276.843215 340.727403,302.798945 C337.620973,324.605292 356.174222,376.783294 354.816837,376.826762 C351.414519,381.705356 346.707093,382.885306 343.926712,378.260238 C338.935192,367.735453 320.088807,329.904117 317.231606,307.838817 C314.612852,279.720117 323.167739,249.736502 332.688687,233.592235 Z" id="Rectangle-16" fill="#4C67F2"></path>
                <g id="Path-10" transform="translate(366.000000, 322.000000)">
                    <mask id="mask-13" fill="white">
                        <use xlink:href="#path-12"></use>
                    </mask>
                    <use id="Mask" fill="#2345EF" xlink:href="#path-12"></use>
                    <path d="M-4.08910891,24.9940204 C-6.74599804,24.9940204 -7.72449924,9.0563937 4.93006689,12.5252097 C9.03911804,17.79074 9.03911804,20.1479543 13.3813216,24.9940204 C17.7235252,29.8400865 26.3992448,42.1751634 23.7868622,47.5828597 C21.1744795,52.990556 -1.43221978,24.9940204 -4.08910891,24.9940204 Z" fill="#1A299D" mask="url(#mask-13)"></path>
                </g>
                <g id="Path-10-Copy" transform="translate(345.500000, 394.000000) scale(-1, 1) translate(-345.500000, -394.000000) translate(332.000000, 373.000000)">
                    <mask id="mask-15" fill="white">
                        <use xlink:href="#path-14"></use>
                    </mask>
                    <use id="Mask" fill="#2345EF" xlink:href="#path-14"></use>
                    <path d="M-4.08910891,24.9940204 C-6.74599804,24.9940204 -7.72449924,9.0563937 4.93006689,12.5252097 C9.03911804,17.79074 9.03911804,20.1479543 13.3813216,24.9940204 C17.7235252,29.8400865 26.3992448,42.1751634 23.7868622,47.5828597 C21.1744795,52.990556 -1.43221978,24.9940204 -4.08910891,24.9940204 Z" id="Path-10" fill="#1A299D" mask="url(#mask-15)"></path>
                </g>
                <g id="chair" transform="translate(329.000000, 245.000000)">
                    <path d="M35.9516945,11.4710852 L0.83814978,223.188865" id="Path-2" stroke="#DFE6EE" stroke-width="3"></path>
                    <path d="M64.4987241,12.5711459 L29.726816,221.202595" id="Path-3" stroke="#DFE6EE" stroke-width="3"></path>
                    <path d="M33,30 L60.6737537,30" id="Path-4" stroke="#DFE6EE" stroke-width="3"></path>
                    <path d="M29,60 L56.6737537,60" id="Path-4-Copy" stroke="#DFE6EE" stroke-width="3"></path>
                    <path d="M22,90 L49.6737537,90" id="Path-4-Copy-2" stroke="#DFE6EE" stroke-width="3"></path>
                    <path d="M19,118 L46.6737537,118" id="Path-4-Copy-3" stroke="#DFE6EE" stroke-width="3"></path>
                    <path d="M15,148 L42.6737537,148" id="Path-4-Copy-4" stroke="#DFE6EE" stroke-width="3"></path>
                    <path d="M8,177 L35.6737537,177" id="Path-4-Copy-5" stroke="#DFE6EE" stroke-width="3"></path>
                    <path d="M3,207 L30.6737537,207" id="Path-4-Copy-6" stroke="#DFE6EE" stroke-width="3"></path>
                    <rect id="Rectangle-13" fill="#B9C0C7" x="31" y="0" width="44" height="12"></rect>
                    <rect id="Rectangle-13-Copy" fill="#DFE6EE" x="75" y="0" width="46" height="12"></rect>
                    <path d="M86.5349394,14.7292199 L121.087131,222.056311" id="Path-5" stroke="#DFE6EE" stroke-width="3"></path>
                    <path d="M117.358617,12.3114032 L150.441155,220.564348" id="Path-6" stroke="#DFE6EE" stroke-width="3"></path>
                    <path d="M99.4143305,78.5067537 L124.564272,78.5067537" id="Path-7" stroke="#DFE6EE" stroke-width="3"></path>
                </g>
                <polygon id="Rectangle-17" fill="#B8C4FC" points="276.060497 158 298 158 298 177 278 177"></polygon>
                <path d="M277,158 L298,158 L298,161 C295.016822,162.267209 292.633087,163.019397 290.848795,163.256563 C286.368898,163.852026 285.493524,170.071749 283.373725,170.071749 C281.129197,170.071749 280.446973,165.792212 279.304438,164.046929 C278.859548,163.367336 278.091402,162.351693 277,161 L277,158 Z" id="Rectangle-18" fill="#014758"></path>
                <path d="M277.415283,158.198203 C277.857368,151.077875 280.653578,146.501691 285.803912,144.469651" id="Path-11" stroke="#B8C4FC" stroke-width="3"></path>
                <path d="M296.122479,145.759882 C298.616476,151.718303 300.873374,156.041951 302.893173,158.730825 C303.401281,159.407248 304.008543,162.759734 304.558657,163.369017 C305.257885,162.557838 308.583216,159.507132 309.292811,158.730825 C327.58095,138.723341 346.275346,132.463455 349.140159,130.751799 C343.348958,124.293894 324.369879,101.463115 322.148806,96.7755781 C321.003367,90.0296159 319.135299,80.1044232 316.544603,67 C319.107435,65.6022972 321.724271,64.5134339 324.96631,67 C325.781714,76.6496935 328.401902,84.8630454 332.826873,91.6400559 C340.370335,98.9102894 367.338822,113.154634 380.820714,126.740956 C391.698716,151.96888 402.219946,184.630763 412.384406,224.726605 C401.016646,225.104134 393.574152,225.104134 390.056925,224.726605 C388.786856,224.590279 390.97015,212.400659 387.043864,207.649126 C383.857756,214.780425 385.79223,224.732654 384.754258,224.726605 C378.147249,224.688096 368.995687,223.823968 360.431816,226.046075 C351.308835,227.668733 343.156021,231.990226 336.474681,235.720578 C335.246147,236.582819 332.330687,236.622143 331.788009,234.723071 C330.248671,226.039216 332.465813,195.49196 332.826873,173.126362 C325.708162,181.239227 317.191893,186.490073 307.278067,188.878901 C303.27809,186.864923 294.136054,166.170058 288.156519,152.501787 C287.562468,146.974054 290.217788,144.726752 296.122479,145.759882 Z" id="Rectangle-15" fill="#00AC96"></path>
                <path d="M360.124757,132 C365.647604,132 367,124.612698 367,115.5 C367,106.387302 362.522847,99 357,99 C351.477153,99 345.007569,107.866825 345.007569,116.979523 C345.007569,121.5714 347.284891,120.791574 349.62143,123.410081 C350.890048,124.831792 349.389286,130.073836 350.741962,132 C351.842092,133.566547 358.895863,132 360.124757,132 Z" id="Oval-8" fill="#FDD9CC"></path>
                <path d="M362.5,129 C369.403559,129 375.972235,116.359077 375.972235,105.865667 C375.972235,95.3722567 369.403559,91 362.5,91 C355.596441,91 351.446181,93.844905 351.091549,105.865667 C351.091549,109.082546 356.641533,109.923915 359.644999,110 C360.429837,112.24512 358.900558,116.247851 356.726259,118.184158 C356.478744,123.468525 359.211852,126.111211 362.5,129 Z" id="Oval-9" fill="#FE3321"></path>
                <ellipse id="Oval-11" fill="#FDD9CC" cx="316" cy="55.5" rx="5" ry="2.5"></ellipse>
                <path d="M0.525102635,70.8806326 C14.3399722,70.8806326 20.7229238,72.4417527 26.6069998,63.0693415 C32.4910758,53.6969303 46.2812862,34.7282778 62.3344568,34.7282778 C78.3876274,34.7282778 92.0450572,63.0693415 109.951465,63.0693415 C127.857873,63.0693415 142.989167,0.522106717 160.542758,0.522106717 C178.096349,0.522106717 197.58664,46.3219182 209.172693,49.112207 C220.758746,51.9024957 249.464007,38.0724512 266.962589,40.6578785 C284.461171,43.2433059 290.663921,55.8271099 302.24618,59.4482257 C313.828439,63.0693415 320.412458,55.8271099 325.205837,53.4124005" id="Path-9" stroke="url(#linearGradient-4)" stroke-width="4"></path>
                <path d="M319.115353,65.8154588 C322.429061,65.8154588 323.72186,63.1916106 323.001977,59 C323.746162,56.3612282 321.430092,56.9929884 319.115353,57.1939883 C318.22119,57.5624681 319.115353,63.7437529 316.222484,59 C314.426781,57.7081186 313.842378,59.7397835 314.753679,61.3983853 C315.964821,64.1558728 316.080359,63.4160893 316.645563,64.1759064 C317.437297,65.2402536 317.610783,65.6585266 319.115353,65.8154588 Z" id="Oval-10" fill="#FDD9CC"></path>
                <path d="M288.5,146 C292.089851,146 295,144.209139 295,142 C295,139.790861 292.089851,138 288.5,138 C284.910149,138 281.410417,141.151527 281.410417,143.360666 C281.410417,145.569805 286.727435,141.244774 288.5,146 Z" id="Oval-12" fill="#FDD9CC"></path>
            </g>
            <g id="people03" transform="translate(603.000000, 365.000000)">
                <path d="M30.1537186,34.3109844 C28.2191089,33.3914531 29.4554383,30.9903429 30.0514719,28.0596501 C30.9956255,23.4172537 30.9956255,18.6400052 31.2029962,18.0355979 C31.9082747,15.9799777 33.7533289,23.4172537 35.235838,31.1127911 C35.5086352,41.1092683 35.9405731,47.0482088 36.5316517,48.9296126 C41.1846679,60.923108 46.9184175,64.4777153 49.3954138,63.9619429 C56.2140306,62.5421366 65.3688667,55.8807399 76.859922,43.9777527 C85.7361024,52.0692895 86.5505281,59.3262439 79.3031992,65.748616 C74.1859836,70.2833436 65.8509778,75.1880988 56.8611564,78.6933001 C54.7796906,79.5048797 50.8660807,82.5918309 45.1560059,82.2348851 C43.6749409,82.1423013 41.1846541,80.961773 37.6851454,78.6933001 C29.0405181,64.9451805 28.3691751,56.2700918 25.9230586,41.4152221 C25.9860394,40.0096648 19.4257206,32.0818983 20.587174,28.4187195 C21.7486275,24.7555407 27.4916149,34.3109844 30.1537186,34.3109844 Z" id="Rectangle-26" fill="#FDD9CC"></path>
                <path d="M82.594815,38.852736 C90.438229,36.3633143 97.8722046,35.1186035 104.896742,35.1186035 C115.433547,35.1186035 122.026268,39.3577942 127.877602,53.314013 C136.677798,74.303666 141.31644,99.4196096 141.793526,128.661844 L86.7365607,118.114863 C85.0383737,94.5380544 82.1421934,76.7545263 78.04802,64.764279 C76.3006004,48.2414527 77.8161987,39.6042717 82.594815,38.852736 Z" id="Rectangle-21" fill="#FFFFFF"></path>
                <path d="M78.9338317,39.9739948 C80.0250141,38.0545431 82.1555994,38.8834382 84.2254312,38.7811798 C83.8326818,43.8254387 83.8326818,45.9087682 84.2254312,55.5012637 C84.8757579,71.3848185 87.9607415,94.5103566 90.5222423,106.786957 C98.1017466,106.128439 102.417963,106.758155 104.231101,106.786957 C105.983191,106.814789 92.375772,55.5012637 113.860782,38.7811798 C115.401693,38.7811798 117.041076,39.1787848 118.778931,39.9739948 C117.866751,41.1588693 117.21576,41.9891165 116.825959,42.4647363 C103.544534,49.0430238 104.209109,91.0058756 110.09568,107.997135 C112.702126,121.451271 123.827426,128.319654 135.710909,119.025829 C137.443303,116.203128 142.362343,115.386229 142.362343,117.442253 C128.13434,197.337802 111.838021,196.92984 104.231101,223.501897 C96.6241811,250.073954 104.231101,258.827556 100.953332,262.089845 C97.6755625,265.352134 90.6604711,263.453092 84.2254312,262.089845 C69.5523549,247.896918 82.185675,195.50157 75.5179544,195.146573 C71.6373193,194.939964 56.3956519,213.519653 50.2345282,220.015455 C49.5613684,234.343871 53.3882688,251.051165 54.8619944,262.089845 C47.7813181,264.31397 40.5292689,264.359384 37.3943714,263.364233 C35.0655681,258.468295 31.3063681,249.939593 26.1167714,237.778127 C17.993236,224.401009 17.2706351,211.140014 23.9489687,197.995142 C42.3184702,161.838706 78.8133949,143.499623 85.8871954,110.884113 C85.336075,94.5540339 81.5105809,67.7609259 78.9338317,56.9350896 C78.8328006,53.4654962 78.9843838,45.2463212 78.9338317,39.9739948 Z" id="Rectangle-22" fill="#00AC96"></path>
                <path d="M83,260.792702 C89.3986452,260.134655 95.3611876,259.14278 101.126594,258 C104.999425,281.534557 107.447568,298.363592 108.471024,308.487105 C104.632655,314.108727 99.1395806,317.877259 91.9918014,319.792702 C89.7157704,320.0046 88.180098,319.356068 87.3847842,317.847104 C86.7902455,316.719075 87.1023528,315.084194 88.4167827,313.009755 C90.3768663,311.187028 92.2578996,309.034552 95.0809001,307.783017 C97.6855034,305.598631 97.7650713,303.374461 97,299.435184 C95.1682301,295.379197 90.5015634,282.498369 83,260.792702 Z" id="Rectangle-24" fill="#4A65F0"></path>
                <path d="M36.8734057,263.790025 C43.2720509,263.131978 49.2345934,262.140102 55,260.997323 C67.0355035,282.064272 73.5649831,297.659503 74.5884387,307.783017 C70.7500698,313.404638 60.0196356,316.604958 42.397136,317.383977 C40.121105,317.595875 38.5854326,316.947342 37.7901189,315.438379 C37.1955802,314.31035 37.794905,311.3169 42.397136,310.175726 C46.9993671,309.034552 50.2578996,309.034552 53.0809001,307.783017 C55.6855034,305.598631 55.7650713,303.374461 55,299.435184 C53.1682301,295.379197 47.126032,283.497477 36.8734057,263.790025 Z" id="Rectangle-24-Copy" fill="#4A65F0"></path>
                <path d="M16.5542735,127.952058 C37.7676529,116.001926 52.5586279,106.802954 60.9271985,100.355141 C71.1679788,92.4648299 84.2910302,80.1566167 100.296353,63.4305018 C111.329247,67.7455743 113.101755,75.9299975 111.577239,85.3730836 L58.8036931,116.26698 C37.5237292,127.321401 25.5173653,133.702067 22.7846016,135.408979 C21.039916,137.036114 20.8260739,139.236619 16.5542735,140.186416 C12.2398177,141.145697 7.15427105,141.145697 1.29763348,140.186416 C-0.546012505,138.518711 -0.20317775,136.94022 1.29763348,135.408979 C7.09742931,135.633293 9.99732722,135.362157 9.99732722,134.595571 C9.99732722,134.433134 12.7434372,132.999897 9.99732722,131.304458 C9.87434589,130.381079 6.84759552,131.478334 7.98415015,127.952058 C10.9035094,127.851914 13.7602172,127.851914 16.5542735,127.952058 Z" id="Rectangle-23" fill="#FDD9CC"></path>
                <path d="M79.5,30.5965143 C80.8311,30.5965143 81.0630428,29.2287567 83.6909158,30.5965143 C85.5745876,31.5769295 85.4587397,35.5050093 83.6909158,38.1113151 C87.3895194,47.4728808 103.906073,43.5100141 104.383344,38.1113151 C104.821362,33.1566363 84.7467051,10 79.5,10 C76.9548682,10 71.7054942,10.2989975 70,11.8428346 C68.1896743,13.4815665 70,19.8627396 70,22.4221248 C70,27.3926876 74.2532949,30.5965143 79.5,30.5965143 Z" id="Oval-14" fill="#FDD9CC"></path>
                <path d="M75.650864,8.29399945 L96.0591589,12.1122534 C97.0596266,17.8052465 99.6050397,22.891892 98.766336,29.3067082 C97.1969253,30.1486024 97.1969253,28.9795216 96.3339971,28.8544401 C91.5381624,28.1592837 85.7930641,27.9314825 90.1271724,22.7413395 C89.1264759,19.3348347 87.5263754,19.3394307 85.6893573,18.6469997 C80.6540676,17.3648047 77.3079032,15.1865559 75.650864,12.1122534 C69.757803,12.9553942 65.5408483,11.6826429 63,8.29399945 L75.650864,8.29399945 Z" id="Rectangle-25" fill="#FDB58D"></path>
                <path d="M96.0173722,16.5989915 C97.8141028,15.2569283 97.6090863,11.8734623 94.9552207,8.5 C92.301355,5.12653771 91.2876207,4.37290168 85.4072051,3.84485202 C83.1719936,3.84485202 77.3744955,5.06587231 72.271024,5.78834714 C63.7026474,4.63231686 59.2763118,-1.27148021 53.9799283,1.32035096 C52.3900158,2.52103043 61.1573505,10.0353512 75,8.5 C74.9018762,12.9416957 93.2976754,18.3066838 96.0173722,16.5989915 Z" id="Oval-13" fill="#2235AB"></path>
                <path d="M115.971053,43.6998778 C107.352567,48.4769115 100.075961,54.5189869 97.2587075,64.7650645 C104.426103,67.5342397 109.160515,70.9208592 111.461945,74.9249231 C113.763374,78.9289871 115.26641,68.5206386 115.971053,43.6998778 Z" id="Path-15" fill="#FFFFFF"></path>
            </g>
            <g id="people02" transform="translate(463.000000, 23.000000)">
                <path d="M26.7255626,84 L83.2792537,93.8265669 C124.141573,106.573564 143.780173,120.227433 143.780173,133.826541 C143.780173,142.892612 129.784328,172.356571 101.792637,222.218416 C99.6388934,223.188694 98.0413477,223.188694 97,222.218416 C95.9586523,221.248138 94.6680884,218.557137 93.1283083,214.145411 C97.267504,203.71266 100.155614,196.774073 101.792637,193.329652 C115.301263,164.906486 120.471287,150.901383 118.348679,142.68572 C117.133595,137.982675 103.128451,133.206327 76.3332479,128.356677 C83.1199739,142.141515 87.242727,155.023544 88.7015071,167.002765 C92.7309904,200.092104 90.6140959,247.033168 88.7015071,255.692374 C86.1334903,257.364093 79.0437174,259.946273 78.5770853,255.692374 C77.6422613,247.170356 76.3332479,222.218416 67.8722999,177.466709 C66.5558377,170.503668 57.2180051,166.643377 49.0002906,157.243959 C44.2804619,151.845421 36.0375778,141.47499 24.2716383,126.132666 L26.7255626,84 Z" id="Rectangle-28" fill="#4B68F1"></path>
                <path d="M88,41 L96.4358029,41 C100.222396,46.4788666 97.0759922,52.6552569 105,57.7178614 C99.1409395,58.2356239 94.4370535,62.3663031 90.5334691,69 C89.0156818,66.4690261 88.1711921,64.257528 88,62.3655057 C87.8288079,60.4734833 87.8288079,53.3516481 88,41 Z" id="Rectangle-29" fill="#B7C3FD"></path>
                <path d="M44.7145768,25.7865611 C54.3643807,19.1138445 55.0710572,19.3468998 62.3411065,17.1150685 C64.5942592,16.4233734 66.75629,16.2972786 68.4145437,17.1150685 C75.9871617,20.849606 78.0959028,37.6528106 84.3188566,39.4224891 C87.5177236,40.3321802 92.9493505,38.3388139 100.613737,33.4423901 C94.1968083,51.3111984 77.8212947,69.7988897 79.7998634,99.0699063 C60.8984278,115.346398 45.7407814,123.306326 34.3269241,122.949689 C32.8598406,122.903849 34.2205454,101.851628 32.6539204,102.508355 C31.1638062,103.133008 29.582739,116.019492 29.582739,124.495586 C23.1464649,124.608188 18.0337496,120.619562 14.2445931,112.529708 C10.2237356,97.3357777 11.0990594,81.3407415 16.8705646,64.5445996 C25.5278224,39.3503866 35.0647728,32.4592778 44.7145768,25.7865611 Z" id="Rectangle-27" fill="#00AC96"></path>
                <path d="M57,62.4670971 C63.0693378,57.9042334 68.71001,56.7485344 73.9220164,59 C77.630021,60.6017718 72.1381033,96.0501077 101.232259,105.6051 C118.085879,111.140102 122.281781,104.19353 130.676564,109.578572 C135.001098,111.927596 137.723256,116.401405 138.843036,123 C132.504625,119.428227 126.984207,117.18044 122.281781,116.256639 C107.265177,113.306597 88.6553013,112.308365 79.5922048,105.6051 C66.2719671,95.7531604 58.7412322,81.3738261 57,62.4670971 Z" id="Rectangle-34" fill="#FDD9CC"></path>
                <path d="M52,36.3201252 C55.6947401,24.9694315 61.4423679,19.7877625 68.0643227,20.7527875 C72.4789592,21.3961375 75.6063986,33.9744843 77.4466408,58.487828 C67.2128626,58.1779619 61.2278926,59.1417797 55.5895512,62.216309 C50.9930105,51.7216283 49.7964934,43.089567 52,36.3201252 Z" id="Rectangle-33" fill="#B7C3FD"></path>
                <g id="Path-12" transform="translate(86.000000, 217.000000)">
                    <mask id="mask-17" fill="white">
                        <use xlink:href="#path-16"></use>
                    </mask>
                    <use id="Mask" fill="#2234AF" xlink:href="#path-16"></use>
                    <path d="M-1.0688187,4.38265404 L11.3217967,9.61141319 C21.441023,9.61141319 26.5006361,8.73995333 26.5006361,6.99703362 C26.5006361,4.38265404 29.6701099,-10.6082454 26.5006361,-10.6082454 C24.3876536,-10.6082454 15.1978353,-8.39547571 -1.0688187,-3.9699363 L-1.0688187,4.38265404 Z" fill="#BAC5FF" mask="url(#mask-17)"></path>
                </g>
                <g id="Path-12-Copy" transform="translate(77.000000, 255.000000)">
                    <mask id="mask-19" fill="white">
                        <use xlink:href="#path-18"></use>
                    </mask>
                    <use id="Mask" fill="#2234AF" xlink:href="#path-18"></use>
                    <path d="M-3.0688187,9.99703362 L13.1800769,9.99703362 C20.7271164,11.7399533 24.5006361,11.7399533 24.5006361,9.99703362 C24.5006361,7.38265404 27.6701099,-7.60824541 24.5006361,-7.60824541 C22.3876536,-7.60824541 13.1978353,-5.39547571 -3.0688187,-0.969936304 L-3.0688187,9.99703362 Z" id="Path-12" fill="#BAC5FF" mask="url(#mask-19)"></path>
                </g>
                <path d="M91,67.4866965 C97.0423809,61.3856333 101.5856,58.1431308 104.629659,57.7591891 C107.466423,61.2289188 129.034316,83.1526896 169.333339,123.530502 C176.596673,123.789134 183.670607,127.959453 182.918098,133.344108 C181.74294,133.976679 180.859078,134.087382 180.26651,133.676218 C178.23767,132.26847 176.24303,128.820175 174.446008,128.081015 C171.35063,128.951564 174.639003,133.850162 171.2239,133.344108 C168.69741,132.470917 168.372044,130.739047 167.66053,128.081015 C155.485544,122.630765 140.053386,112.229466 121.364054,96.8771165 L91,67.4866965 Z" id="Rectangle-30" fill="#FDD9CC"></path>
                <path d="M180.833783,147.131881 L177.762715,150.202949 L174.691647,147.131881 L170.227181,147.131881 C168.570327,147.131881 167.227181,145.788736 167.227181,144.131881 L167.227181,135.131881 C167.227181,133.475027 168.570327,132.131881 170.227181,132.131881 L185.203246,132.131881 C186.8601,132.131881 188.203246,133.475027 188.203246,135.131881 L188.203246,144.131881 C188.203246,145.788736 186.8601,147.131881 185.203246,147.131881 L180.833783,147.131881 Z" id="Combined-Shape" fill="#3655EE" transform="translate(177.715213, 141.167415) rotate(32.000000) translate(-177.715213, -141.167415) "></path>
                <path d="M105,33.0879343 C107.797921,37.1593449 111.005762,39.1705569 113.777708,39.0041288 C120.778199,38.583818 126,30.9344431 126,25 C126,16.7157288 116.59798,10 105,10 C93.4020203,10 84,16.7157288 84,25 C84,31.3860465 79.4628052,36.8400159 87.3358635,39.0041288 C88.3210295,39.274927 94.6861534,38.3626838 97,37.4302944 C98.7805278,36.7128117 98.233234,34.0710137 99.7523864,33.0879343 C100.948663,32.3137956 104.322093,33.0879343 105,33.0879343 Z" id="Oval-15" fill="#FDD9CC"></path>
                <path d="M30.6204411,28.6545698 C44.6298695,22.9809746 41.4347541,16.0889882 49.8815438,5.89896919 C52.0297778,3.30738753 53.9980094,0.741917732 59.8872176,0.741917732 C75.7477769,0.741917732 79.3597507,7.76203952 87.0502933,7.76203952 C99.1398019,7.76203952 96.2535705,1.98665333 108.859467,0.741917732 C127.98919,-1.14699559 130.490283,16.1920485 132.532977,18.361908 C133.438529,20.7379535 131.459597,22.5504909 130.008184,23.2072206 C126.516098,24.1716136 119.823057,23.208122 113.126855,23.2072206 C112.11616,20.3525849 110.350429,20.3364614 108.859467,20.8718798 C106.717995,21.6409028 105.397109,22.3155626 105.861987,25.8161033 C103.34546,27.9808998 97.0388409,27.2615481 95.7158156,28.6545698 C91.7175869,32.86433 90.4344072,39.7791204 87.0502933,39.7791204 C76.3887,39.7791204 72.9128451,16.8228591 67.3614785,16.7979871 C41.5708678,16.76712 19.845406,54.7286483 15.2980727,67.595387 C8.66977809,67.595387 4.9322737,66.6009573 2.17635399,63.1362622 C0.526174463,60.3400021 0.526174463,55.8897018 2.17635399,49.7853612 C14.1886902,30.4646932 18.0017913,33.7649217 30.6204411,28.6545698 Z" id="Rectangle-35" fill="#FD4919"></path>
            </g>
            <g id="people01" transform="translate(35.000000, 252.000000)">
                <rect id="Rectangle-37" fill="#FFFFFF" x="37" y="123" width="37" height="114"></rect>
                <g id="Path-13" transform="translate(28.000000, 422.000000)">
                    <mask id="mask-21" fill="white">
                        <use xlink:href="#path-20"></use>
                    </mask>
                    <use id="Mask" fill="#4E68F1" xlink:href="#path-20"></use>
                    <path d="M-2.54387601,-4.33813395 L-2.54387601,1.75312484 C7.46260546,6.46464047 12.5462431,5.03942923 17.7417207,4.14178567 L21.3929896,-11.7445584 L-2.54387601,-4.33813395 Z" fill="#FFFFFF" mask="url(#mask-21)"></path>
                </g>
                <g id="Path-13-Copy" transform="translate(81.000000, 419.000000)">
                    <mask id="mask-23" fill="white">
                        <use xlink:href="#path-22"></use>
                    </mask>
                    <use id="Mask" fill="#4E68F1" xlink:href="#path-22"></use>
                    <path d="M-2.54387601,-4.33813395 L-2.54387601,1.75312484 C7.46260546,6.46464047 12.5462431,5.03942923 17.7417207,4.14178567 L21.3929896,-11.7445584 L-2.54387601,-4.33813395 Z" id="Path-13" fill="#FFFFFF" mask="url(#mask-23)"></path>
                </g>
                <path d="M11,226 C32.5654786,229.771789 48.2913736,231.395385 58.1776849,230.870789 C68.0639963,230.346192 78.0317386,227.142097 88.0809117,221.258504 C97.2267319,253.601384 102.21173,285.951438 103.035906,318.308666 C103.889573,351.823677 100.582417,385.345863 93.1144391,418.875223 C88.8466304,419.861327 84.5168237,419.861327 80.125019,418.875223 C80.7533772,350.90949 78.3179208,310.761746 71.8721628,304.281544 C70.9259474,310.776001 69.0558656,326.663352 66.2058359,340.531142 C58.7750782,376.688027 46.9125693,422 44.0258422,422 C39.1571085,422 34.7003734,422 30.655637,422 C30.655637,416.659632 32.560819,412.224057 32.560819,400.15769 C32.560819,376.981327 44.8351675,361.214564 25.5965796,280.854371 C22.7672993,269.036378 16.0170456,239.095191 11,226 Z" id="Rectangle-36" fill="#283BAF"></path>
                <g id="Rectangle-40-+-Rectangle-41-Mask" transform="translate(0.000000, 40.000000)">
                    <mask id="mask-25" fill="white">
                        <use xlink:href="#path-24"></use>
                    </mask>
                    <use id="Mask" fill="#00AC96" xlink:href="#path-24"></use>
                    <rect id="Rectangle-40" fill="#081B9A" mask="url(#mask-25)" x="95" y="133" width="14" height="22"></rect>
                    <polygon id="Rectangle-41" fill="#081B9A" mask="url(#mask-25)" points="81 -8 104 -8 104 17.1848795 78.9264017 10.1229595"></polygon>
                </g>
                <path d="M17.7142569,230.177701 C24.3849469,233.50507 30.392576,237.002142 40.2851206,237.230887 C41.0347343,237.24822 42.7282974,238.46586 42.7711279,239.04703 C42.9556255,241.550492 42.848074,243.58462 41.8536045,245.353018 C40.9044193,247.040891 41.5343517,245.563456 39.8011746,245.353018 C31.9825124,244.403696 21.9187994,242.468967 15.8042076,238.696636 C15.0528778,238.233112 12.9609811,236.796501 13.0005538,236.064042 C13.062965,234.908863 13.7647782,232.723565 14.0849762,231.394654 C14.2547145,230.690193 16.4789005,229.5615 17.7142569,230.177701 Z" id="Rectangle-38" fill="#081B9A"></path>
                <path d="M39.032916,122.476173 C42.0594644,126.040725 40.0874596,126.905724 49.9800041,127.134469 C50.7296178,127.151802 52.423181,128.369442 52.4660115,128.950613 C52.650509,131.454075 52.5429575,133.488202 51.5484881,135.2566 C50.5993028,136.944473 51.2292353,135.467039 49.4960582,135.2566 C41.677396,134.307278 43.2374586,134.767439 37.1228668,130.995108 C36.371537,130.531584 35.5165726,130.93026 34.319213,128.362514 C33.0814342,125.708089 36.340227,121.2282 39.032916,122.476173 Z" id="Rectangle-38-Copy" fill="#081B9A" transform="translate(43.294488, 129.158501) rotate(-335.000000) translate(-43.294488, -129.158501) "></path>
                <path d="M59,119 L62.4247514,119 C65.5285676,120.204745 65.906137,123.112343 67.3456914,125.469023 C67.5764041,126.936955 67.2126254,128.059186 66.2543553,128.835715 C64.9535546,129.889812 63.6096987,130.277907 62.2227877,130 L59,123.997213 L59,119 Z" id="Rectangle-39" fill="#081B9A"></path>
                <path d="M89.2425235,233.081036 C91.1755201,233.081036 94.9420956,231.923943 94.9420956,228.886377 C94.9420956,225.848811 94.6363912,224.691718 92.7033945,224.691718 C90.9991581,226.124456 89.1731352,226.545667 87.4083933,228.886377 C87.4083933,231.923943 87.3095269,233.081036 89.2425235,233.081036 Z" id="Oval-16" fill="#081B9A"></path>
                <path d="M57,117.514415 C64.7319865,117.514415 69.931523,118.15415 69.931523,110.422163 C69.931523,102.690177 64.7319865,90 57,90 C49.2680135,90 43,96.2680135 43,104 C43,108.563993 45.1839249,112.617903 48.5637487,115.173704 C49.1039277,115.582184 42.7612709,116.739545 40.5841068,120.122641 C38.4226479,123.481332 40.3986226,129.060957 48.5637487,130.820792 C64.9533291,134.353247 58.2223634,121.786984 57,117.514415 Z" id="Oval-17" fill="#FDD9CC"></path>
                <path d="M47.5,117 C50.4583959,117 50.4583959,115.55343 50.4583959,112.555328 C50.4583959,109.557227 47.5,112.253382 47.5,107.19807 C47.5,106.269419 48.2136569,104.121989 51.0089619,104.121989 C51.7049526,104.121989 51.1274914,97.0061477 51.7049526,95.839308 C53.2567755,92.7036371 63.7725917,94.6421516 63.7725917,92.5526083 C63.7725917,85.3979303 57.6204066,83.8685262 50.4583959,83.8685262 C43.2963851,83.8685262 33.0300124,92.5526083 34.4007005,100.547131 C35.7713886,108.541653 43.1874412,117 47.5,117 Z" id="Oval-18" fill="#2A3DB3"></path>
                <path d="M108,180 L143.939901,182.906556 C146.247837,180.345697 148.124255,179.087197 149.569154,179.131056 C150.854378,182.680978 146.03565,182.906556 146.872825,184.995368 C147.049511,185.436212 150.097671,185.843732 156.017306,186.21793 C157.805643,186.945737 158.501829,187.685322 158.105862,188.436686 C157.511912,189.563731 156.017306,190.365954 154.250221,190.365954 C150.576853,190.866232 148.098806,191.168177 143.939901,190.365954 C141.167298,189.831139 129.187331,189.563731 108,189.563731 L108,180 Z" id="Rectangle-42" fill="#FDD9CC"></path>
                <path d="M87.4713495,6.13598399 C89.1686241,3.00727453 90.0173417,2.61116607 91.7983542,1.66806836 C96.9114724,-1.03947594 102.667505,2.14616007 103.249519,4.46517586 C100.008311,5.46861643 98.0118,5.14095186 93.8017563,5.08965573 C93.8044646,5.60004766 93.9807189,16.0419457 93.9792985,16.5775567 C93.9685985,20.6124869 93.241617,28.795407 91.7983542,41.1263168 L84.7090785,39.5355727 C85.0606298,29.8227203 85.9813868,22.1700483 87.4713495,16.5775567 C85.6298355,11.84503 85.6298355,8.36450573 87.4713495,6.13598399 Z" id="Rectangle-43" fill="#FDD9CC"></path>
            </g>
        </g>
    </g>
</svg>