<svg xmlns="http://www.w3.org/2000/svg" xmlns:xlink="http://www.w3.org/1999/xlink" width="272" height="272" viewBox="0 0 272 272">
    <defs>
        <path id="a" d="M6 3a3 3 0 0 0-3 3v70a3 3 0 0 0 3 3h44a3 3 0 0 0 3-3V6a3 3 0 0 0-3-3H6z"/>
        <path id="c" d="M3 0a3 3 0 0 0-3 3v50a3 3 0 0 0 3 3h71a3 3 0 0 0 3-3V3a3 3 0 0 0-3-3H3z"/>
        <path id="e" d="M3 0a3 3 0 0 0-3 3v50a3 3 0 0 0 3 3h65.195a3 3 0 0 0 3-3V3a3 3 0 0 0-3-3H3z"/>
        <path id="g" d="M0 6a3 3 0 0 0 3 3h78a3 3 0 0 0 3-3V0H52.236v4.363H31.63V0H0v6z"/>
    </defs>
    <g fill="none" fill-rule="evenodd">
        <path fill="#E6F7FF" d="M89.379 70.236C106.842 55.517 116.22 44 136.497 44c26.771 0 38.93 12.998 57.704 45.745 14.72 14.839 39.864 20.335 51.228 53.194 3.215 15.67-8.136 27.588-12.514 46.391-2.715 11.664 3.323 28.445-7.41 37.852-41.055 22.76-118.438 12.99-140.35 14.295-10.49.806-42.939-4.63-51.852-38.392-6.743-24.626 8.527-22.316-4.617-69.514C17.091 80.488 68.346 69.56 89.38 70.236z"/>
        <path fill="#69C0FF" d="M50.657 95c1.208 4.116 3.48 7.452 8.657 8.657-6.061.994-7.554 4.71-8.657 8.657-1.629-3.979-2.95-8.224-8.657-8.657 4.537-1.508 7.222-4.561 8.657-8.657z"/>
        <path fill="#1890FF" d="M151.071 39c.987 3.362 2.843 6.087 7.071 7.071-4.95.812-6.17 3.847-7.07 7.071-1.331-3.25-2.411-6.718-7.072-7.07 3.706-1.232 5.899-3.726 7.071-7.072z"/>
        <path fill="#69C0FF" d="M216.36 69.886c1.75 5.96 5.04 10.79 12.536 12.536-8.777 1.439-10.938 6.819-12.535 12.535-2.359-5.761-4.273-11.909-12.536-12.535 6.57-2.184 10.457-6.605 12.536-12.536z"/>
        <path fill="#1890FF" d="M243.268 147c1.154 3.931 3.323 7.117 8.268 8.268-5.79.95-7.215 4.497-8.268 8.268-1.556-3.8-2.818-7.855-8.268-8.268 4.333-1.44 6.897-4.356 8.268-8.268zM181.268 220c1.154 3.931 3.323 7.117 8.268 8.268-5.79.95-7.215 4.497-8.268 8.268-1.556-3.8-2.818-7.855-8.268-8.268 4.333-1.44 6.897-4.356 8.268-8.268z"/>
        <path fill="#69C0FF" d="M51.268 220c1.154 3.931 3.323 7.117 8.268 8.268-5.79.95-7.215 4.497-8.268 8.268-1.556-3.8-2.818-7.855-8.268-8.268 4.333-1.44 6.897-4.356 8.268-8.268z"/>
        <path fill="#096DD9" d="M28.459 131.886c1.065 3.63 3.069 6.571 7.634 7.634-5.345.877-6.661 4.153-7.634 7.634-1.436-3.509-2.602-7.253-7.634-7.634 4-1.33 6.368-4.022 7.634-7.634z"/>
        <g transform="translate(107 61)">
            <path fill="#1890FF" d="M6 0h44a6 6 0 0 1 6 6v70a6 6 0 0 1-6 6H6a6 6 0 0 1-6-6V6a6 6 0 0 1 6-6z"/>
            <mask id="b" fill="#fff">
                <use xlink:href="#a"/>
            </mask>
            <use fill="#E6F7FF" fill-rule="nonzero" xlink:href="#a"/>
            <path fill="#69C0FF" d="M2-9h53v35.283L2 49zM2 56.464l53-22.67v6.755L2 63.266z" mask="url(#b)" opacity=".207"/>
            <path fill="#58666E" d="M1.625 16.604c1.682 0 .615-8.133 3.98-9.795 3.364-1.662 38.835-.838 43.431 0 4.597.838 3.632 9.795 4.723 9.795 1.09 0 5.978-4.99 5.978-4.99s3.388-17.787-5.978-17.787-45.826-5.883-48.155-3.71C3.276-7.707-.058 16.605 1.624 16.605z" mask="url(#b)" opacity=".14"/>
            <rect width="20" height="7" x="17.5" y="2.5" fill="#58666E" stroke="#1890FF" stroke-width="3" mask="url(#b)" rx="3.5"/>
        </g>
        <path fill="#1890FF" d="M46 148h71a6 6 0 0 1 6 6v50a6 6 0 0 1-6 6H46a6 6 0 0 1-6-6v-50a6 6 0 0 1 6-6z"/>
        <g transform="translate(43 151)">
            <mask id="d" fill="#fff">
                <use xlink:href="#c"/>
            </mask>
            <use fill="#E6F7FF" fill-rule="nonzero" xlink:href="#c"/>
            <path fill="#69C0FF" d="M-2.008-28.618L72.474-34.9V.382l-74.482 29zM-1.005 34.495L78.846 3.508v6.755L-1.005 41.297z" mask="url(#d)" opacity=".207"/>
            <path fill="#58666E" d="M-1.543 12.969c1.683 0 .615-8.133 3.98-9.796 3.364-1.662 65.835-.837 70.432 0 4.596.838 3.631 7.43 4.722 7.43 1.09 0 5.978-2.624 5.978-2.624S86.957-9.81 77.591-9.81 4.765-15.692 2.437-13.518C.108-11.344-3.225 12.97-1.543 12.97z" mask="url(#d)" opacity=".135"/>
            <path fill="#58666E" d="M-1.159 70.673c1.683 0 .615-8.133 3.98-9.796 3.364-1.662 65.835-.837 70.432 0 4.596.838 3.632 7.43 4.722 7.43 1.09 0 5.979-2.624 5.979-2.624L77.975 52H-1.159c-1.121 12.448-1.121 18.673 0 18.673z" mask="url(#d)" opacity=".241"/>
        </g>
        <path fill="#1890FF" d="M42 192h79v3H42z"/>
        <path fill="#1890FF" fill-rule="nonzero" d="M155 148h65.195a6 6 0 0 1 6 6v50a6 6 0 0 1-6 6H155a6 6 0 0 1-6-6v-50a6 6 0 0 1 6-6z"/>
        <g transform="translate(152 151)">
            <mask id="f" fill="#fff">
                <use xlink:href="#e"/>
            </mask>
            <use fill="#E6F7FF" xlink:href="#e"/>
            <path fill="#69C0FF" d="M-2.008-28.618L72.474-34.9V.382l-74.482 29zM-1.005 34.495L78.846 3.508v6.755L-1.005 41.297z" mask="url(#f)" opacity=".207"/>
            <path fill="#58666E" d="M-1.543 12.969c1.683 0 .615-8.133 3.98-9.796 3.364-1.662 65.835-.837 70.432 0 4.596.838 3.631 7.43 4.722 7.43 1.09 0 5.978-2.624 5.978-2.624S86.957-9.81 77.591-9.81 4.765-15.692 2.437-13.518C.108-11.344-3.225 12.97-1.543 12.97z" mask="url(#f)" opacity=".135"/>
        </g>
        <path fill="#1890FF" fill-rule="nonzero" d="M142 197h37.629v4.363h14.607V197H232v9a6 6 0 0 1-6 6h-78a6 6 0 0 1-6-6v-9z"/>
        <g transform="translate(145 200)">
            <mask id="h" fill="#fff">
                <use xlink:href="#g"/>
            </mask>
            <use fill="#69C0FF" xlink:href="#g"/>
            <path fill="#58666E" d="M-4 6h90v8H-4z" mask="url(#h)" opacity=".359"/>
        </g>
        <path fill="#69C0FF" stroke="#1890FF" stroke-width="3" d="M72.5 208.555h18V219.5h-18z"/>
        <path fill="#58666E" d="M74 210h15v4H74z" opacity=".416"/>
        <path fill="#1890FF" d="M67 218h30v3H67z"/>
        <path stroke="#1890FF" stroke-dasharray="5" stroke-linecap="square" stroke-width="3" d="M135 145v91.605M82 222v14.744M187 213v24.118M42.5 248.5h189"/>
        <g>
            <path fill="#1890FF" d="M82.5 259c-5.799 0-10.5-4.701-10.5-10.5S76.701 238 82.5 238 93 242.701 93 248.5 88.299 259 82.5 259z"/>
            <path fill="#69C0FF" fill-rule="nonzero" d="M82.5 256a7.5 7.5 0 1 0 0-15 7.5 7.5 0 0 0 0 15z"/>
            <path fill="#E6F7FF" fill-rule="nonzero" d="M75.066 249.5a7.5 7.5 0 1 1 14.868 0 7.501 7.501 0 0 0-14.868 0z" opacity=".845"/>
        </g>
        <g>
            <path fill="#1890FF" d="M133.5 259c-5.799 0-10.5-4.701-10.5-10.5s4.701-10.5 10.5-10.5 10.5 4.701 10.5 10.5-4.701 10.5-10.5 10.5z"/>
            <path fill="#69C0FF" fill-rule="nonzero" d="M133.5 256a7.5 7.5 0 1 0 0-15 7.5 7.5 0 0 0 0 15z"/>
            <path fill="#E6F7FF" fill-rule="nonzero" d="M126.066 249.5a7.5 7.5 0 1 1 14.868 0 7.501 7.501 0 0 0-14.868 0z" opacity=".845"/>
        </g>
        <g>
            <path fill="#1890FF" d="M187.5 259c-5.799 0-10.5-4.701-10.5-10.5s4.701-10.5 10.5-10.5 10.5 4.701 10.5 10.5-4.701 10.5-10.5 10.5z"/>
            <path fill="#69C0FF" fill-rule="nonzero" d="M187.5 256a7.5 7.5 0 1 0 0-15 7.5 7.5 0 0 0 0 15z"/>
            <path fill="#E6F7FF" fill-rule="nonzero" d="M180.066 249.5a7.5 7.5 0 1 1 14.868 0 7.501 7.501 0 0 0-14.868 0z" opacity=".845"/>
        </g>
    </g>
</svg>
